<svg width="356" height="185" viewBox="0 0 356 185" fill="none" xmlns="http://www.w3.org/2000/svg">
<rect width="355" height="183" rx="15" fill="white"/>
<mask id="mask0_1_23" style="mask-type:alpha" maskUnits="userSpaceOnUse" x="0" y="0" width="355" height="183">
<rect width="355" height="183" rx="15" fill="white"/>
</mask>
<g mask="url(#mask0_1_23)">
<path d="M0 15C0 6.71573 6.71573 0 15 0H340.359C356.358 0 361.242 21.6985 346.786 28.5534L21.427 182.839C11.4748 187.559 0 180.3 0 169.286V15Z" fill="#00B0AE"/>
</g>
<path d="M24.9176 19.6562H21.1847C21.1165 19.1733 20.9773 18.7443 20.767 18.3693C20.5568 17.9886 20.2869 17.6648 19.9574 17.3977C19.6278 17.1307 19.2472 16.9261 18.8153 16.7841C18.3892 16.642 17.9261 16.571 17.4261 16.571C16.5227 16.571 15.7358 16.7955 15.0653 17.2443C14.3949 17.6875 13.875 18.3352 13.5057 19.1875C13.1364 20.0341 12.9517 21.0625 12.9517 22.2727C12.9517 23.517 13.1364 24.5625 13.5057 25.4091C13.8807 26.2557 14.4034 26.8949 15.0739 27.3267C15.7443 27.7585 16.5199 27.9744 17.4006 27.9744C17.8949 27.9744 18.3523 27.9091 18.7727 27.7784C19.1989 27.6477 19.5767 27.4574 19.9062 27.2074C20.2358 26.9517 20.5085 26.642 20.7244 26.2784C20.946 25.9148 21.0994 25.5 21.1847 25.0341L24.9176 25.0511C24.821 25.8523 24.5795 26.625 24.1932 27.3693C23.8125 28.108 23.2983 28.7699 22.6506 29.3551C22.0085 29.9347 21.2415 30.3949 20.3494 30.7358C19.4631 31.071 18.4602 31.2386 17.3409 31.2386C15.7841 31.2386 14.392 30.8864 13.1648 30.1818C11.9432 29.4773 10.9773 28.4574 10.267 27.1222C9.5625 25.7869 9.21023 24.1705 9.21023 22.2727C9.21023 20.3693 9.56818 18.75 10.2841 17.4148C11 16.0795 11.9716 15.0625 13.1989 14.3636C14.4261 13.6591 15.8068 13.3068 17.3409 13.3068C18.3523 13.3068 19.2898 13.4489 20.1534 13.733C21.0227 14.017 21.7926 14.4318 22.4631 14.9773C23.1335 15.517 23.679 16.179 24.0994 16.9631C24.5256 17.7472 24.7983 18.6449 24.9176 19.6562ZM33.4105 31.2557C32.0866 31.2557 30.9418 30.9744 29.9759 30.4119C29.0156 29.8437 28.2741 29.054 27.7514 28.0426C27.2287 27.0256 26.9673 25.8466 26.9673 24.5057C26.9673 23.1534 27.2287 21.9716 27.7514 20.9602C28.2741 19.9432 29.0156 19.1534 29.9759 18.5909C30.9418 18.0227 32.0866 17.7386 33.4105 17.7386C34.7344 17.7386 35.8764 18.0227 36.8366 18.5909C37.8026 19.1534 38.5469 19.9432 39.0696 20.9602C39.5923 21.9716 39.8537 23.1534 39.8537 24.5057C39.8537 25.8466 39.5923 27.0256 39.0696 28.0426C38.5469 29.054 37.8026 29.8437 36.8366 30.4119C35.8764 30.9744 34.7344 31.2557 33.4105 31.2557ZM33.4276 28.4432C34.0298 28.4432 34.5327 28.2727 34.9361 27.9318C35.3395 27.5852 35.6435 27.1136 35.848 26.517C36.0582 25.9205 36.1634 25.2415 36.1634 24.4801C36.1634 23.7188 36.0582 23.0398 35.848 22.4432C35.6435 21.8466 35.3395 21.375 34.9361 21.0284C34.5327 20.6818 34.0298 20.5085 33.4276 20.5085C32.8196 20.5085 32.3082 20.6818 31.8935 21.0284C31.4844 21.375 31.1747 21.8466 30.9645 22.4432C30.7599 23.0398 30.6577 23.7188 30.6577 24.4801C30.6577 25.2415 30.7599 25.9205 30.9645 26.517C31.1747 27.1136 31.4844 27.5852 31.8935 27.9318C32.3082 28.2727 32.8196 28.4432 33.4276 28.4432ZM42.2145 31V17.9091H45.6747V20.2188H45.8281C46.1009 19.4517 46.5554 18.8466 47.1918 18.4034C47.8281 17.9602 48.5895 17.7386 49.4759 17.7386C50.3736 17.7386 51.1378 17.9631 51.7685 18.4119C52.3991 18.8551 52.8196 19.4574 53.0298 20.2188H53.1662C53.4332 19.4688 53.9162 18.8693 54.6151 18.4205C55.3196 17.9659 56.152 17.7386 57.1122 17.7386C58.3338 17.7386 59.3253 18.1278 60.0866 18.9062C60.8537 19.679 61.2372 20.7756 61.2372 22.196V31H57.6151V22.9119C57.6151 22.1847 57.4219 21.6392 57.0355 21.2756C56.6491 20.9119 56.1662 20.7301 55.5866 20.7301C54.9276 20.7301 54.4134 20.9403 54.044 21.3608C53.6747 21.7756 53.4901 22.3239 53.4901 23.0057V31H49.9702V22.8352C49.9702 22.1932 49.7855 21.6818 49.4162 21.3011C49.0526 20.9205 48.5724 20.7301 47.9759 20.7301C47.5724 20.7301 47.2088 20.8324 46.8849 21.0369C46.5668 21.2358 46.3139 21.517 46.1264 21.8807C45.9389 22.2386 45.8452 22.6591 45.8452 23.142V31H42.2145ZM64.1051 35.9091V17.9091H67.6847V20.108H67.8466C68.0057 19.7557 68.2358 19.3977 68.5369 19.0341C68.8438 18.6648 69.2415 18.358 69.7301 18.1136C70.2244 17.8636 70.8381 17.7386 71.571 17.7386C72.5256 17.7386 73.4063 17.9886 74.2131 18.4886C75.0199 18.983 75.6648 19.7301 76.1477 20.7301C76.6307 21.7244 76.8722 22.9716 76.8722 24.4716C76.8722 25.9318 76.6364 27.1648 76.1648 28.1705C75.6989 29.1705 75.0625 29.929 74.2557 30.446C73.4545 30.9574 72.5568 31.2131 71.5625 31.2131C70.858 31.2131 70.2585 31.0966 69.7642 30.8636C69.2756 30.6307 68.875 30.3381 68.5625 29.9858C68.25 29.6278 68.0114 29.267 67.8466 28.9034H67.7358V35.9091H64.1051ZM67.6591 24.4545C67.6591 25.233 67.767 25.9119 67.983 26.4915C68.1989 27.071 68.5114 27.5227 68.9205 27.8466C69.3295 28.1648 69.8267 28.3239 70.4119 28.3239C71.0028 28.3239 71.5028 28.1619 71.9119 27.8381C72.321 27.5085 72.6307 27.054 72.8409 26.4744C73.0568 25.8892 73.1648 25.2159 73.1648 24.4545C73.1648 23.6989 73.0597 23.0341 72.8494 22.4602C72.6392 21.8864 72.3295 21.4375 71.9205 21.1136C71.5114 20.7898 71.0085 20.6278 70.4119 20.6278C69.821 20.6278 69.321 20.7841 68.9119 21.0966C68.5085 21.4091 68.1989 21.8523 67.983 22.4261C67.767 23 67.6591 23.6761 67.6591 24.4545ZM79.2926 31V17.9091H82.8125V20.1932H82.9489C83.1875 19.3807 83.5881 18.767 84.1506 18.3523C84.7131 17.9318 85.3608 17.7216 86.0938 17.7216C86.2756 17.7216 86.4716 17.733 86.6818 17.7557C86.892 17.7784 87.0767 17.8097 87.2358 17.8494V21.071C87.0653 21.0199 86.8295 20.9744 86.5284 20.9347C86.2273 20.8949 85.9517 20.875 85.7017 20.875C85.1676 20.875 84.6903 20.9915 84.2699 21.2244C83.8551 21.4517 83.5256 21.7699 83.2812 22.179C83.0426 22.5881 82.9233 23.0597 82.9233 23.5938V31H79.2926ZM94.4695 31.2557C93.1229 31.2557 91.9638 30.983 90.9922 30.4375C90.0263 29.8864 89.282 29.108 88.7592 28.1023C88.2365 27.0909 87.9751 25.8949 87.9751 24.5142C87.9751 23.1676 88.2365 21.9858 88.7592 20.9688C89.282 19.9517 90.0178 19.1591 90.9666 18.5909C91.9212 18.0227 93.0405 17.7386 94.3246 17.7386C95.1882 17.7386 95.9922 17.8778 96.7365 18.1562C97.4865 18.429 98.1399 18.8409 98.6967 19.392C99.2592 19.9432 99.6967 20.6364 100.009 21.4716C100.322 22.3011 100.478 23.2727 100.478 24.3864V25.3835H89.424V23.1335H97.0604C97.0604 22.6108 96.9467 22.1477 96.7195 21.7443C96.4922 21.3409 96.1768 21.0256 95.7734 20.7983C95.3757 20.5653 94.9126 20.4489 94.3842 20.4489C93.8331 20.4489 93.3445 20.5767 92.9183 20.8324C92.4979 21.0824 92.1683 21.4205 91.9297 21.8466C91.6911 22.267 91.5689 22.7358 91.5632 23.2528V25.392C91.5632 26.0398 91.6825 26.5994 91.9212 27.071C92.1655 27.5426 92.5092 27.9062 92.9524 28.1619C93.3956 28.4176 93.9212 28.5455 94.5291 28.5455C94.9325 28.5455 95.3018 28.4886 95.6371 28.375C95.9723 28.2614 96.2592 28.0909 96.4979 27.8636C96.7365 27.6364 96.9183 27.358 97.0433 27.0284L100.401 27.25C100.231 28.0568 99.8814 28.7614 99.353 29.3636C98.8303 29.9602 98.1541 30.4261 97.3246 30.7614C96.5007 31.0909 95.549 31.2557 94.4695 31.2557ZM114.368 31.2557C113.021 31.2557 111.862 30.983 110.891 30.4375C109.925 29.8864 109.18 29.108 108.658 28.1023C108.135 27.0909 107.874 25.8949 107.874 24.5142C107.874 23.1676 108.135 21.9858 108.658 20.9688C109.18 19.9517 109.916 19.1591 110.865 18.5909C111.82 18.0227 112.939 17.7386 114.223 17.7386C115.087 17.7386 115.891 17.8778 116.635 18.1562C117.385 18.429 118.038 18.8409 118.595 19.392C119.158 19.9432 119.595 20.6364 119.908 21.4716C120.22 22.3011 120.376 23.2727 120.376 24.3864V25.3835H109.322V23.1335H116.959C116.959 22.6108 116.845 22.1477 116.618 21.7443C116.391 21.3409 116.075 21.0256 115.672 20.7983C115.274 20.5653 114.811 20.4489 114.283 20.4489C113.732 20.4489 113.243 20.5767 112.817 20.8324C112.396 21.0824 112.067 21.4205 111.828 21.8466C111.589 22.267 111.467 22.7358 111.462 23.2528V25.392C111.462 26.0398 111.581 26.5994 111.82 27.071C112.064 27.5426 112.408 27.9062 112.851 28.1619C113.294 28.4176 113.82 28.5455 114.428 28.5455C114.831 28.5455 115.2 28.4886 115.536 28.375C115.871 28.2614 116.158 28.0909 116.396 27.8636C116.635 27.6364 116.817 27.358 116.942 27.0284L120.3 27.25C120.129 28.0568 119.78 28.7614 119.251 29.3636C118.729 29.9602 118.053 30.4261 117.223 30.7614C116.399 31.0909 115.447 31.2557 114.368 31.2557ZM132.033 31.2472C131.198 31.2472 130.454 31.1023 129.8 30.8125C129.147 30.517 128.63 30.0824 128.249 29.5085C127.874 28.929 127.687 28.2074 127.687 27.3438C127.687 26.6165 127.82 26.0057 128.087 25.5114C128.354 25.017 128.718 24.6193 129.178 24.3182C129.638 24.017 130.161 23.7898 130.746 23.6364C131.337 23.483 131.957 23.375 132.604 23.3125C133.366 23.233 133.979 23.1591 134.445 23.0909C134.911 23.017 135.249 22.9091 135.46 22.767C135.67 22.625 135.775 22.4148 135.775 22.1364V22.0852C135.775 21.5455 135.604 21.1278 135.263 20.8324C134.928 20.5369 134.451 20.3892 133.832 20.3892C133.178 20.3892 132.658 20.5341 132.272 20.8239C131.886 21.108 131.63 21.4659 131.505 21.8977L128.147 21.625C128.317 20.8295 128.653 20.142 129.153 19.5625C129.653 18.9773 130.298 18.5284 131.087 18.2159C131.883 17.8977 132.803 17.7386 133.849 17.7386C134.576 17.7386 135.272 17.8239 135.937 17.9943C136.607 18.1648 137.201 18.429 137.718 18.7869C138.241 19.1449 138.653 19.6051 138.954 20.1676C139.255 20.7244 139.406 21.392 139.406 22.1705V31H135.962V29.1847H135.86C135.65 29.5938 135.369 29.9545 135.016 30.267C134.664 30.5739 134.241 30.8153 133.746 30.9915C133.252 31.1619 132.681 31.2472 132.033 31.2472ZM133.073 28.7415C133.607 28.7415 134.079 28.6364 134.488 28.4261C134.897 28.2102 135.218 27.9205 135.451 27.5568C135.684 27.1932 135.8 26.7812 135.8 26.321V24.9318C135.687 25.0057 135.531 25.0739 135.332 25.1364C135.138 25.1932 134.92 25.2472 134.675 25.2983C134.431 25.3437 134.187 25.3864 133.942 25.4261C133.698 25.4602 133.477 25.4915 133.278 25.5199C132.852 25.5824 132.479 25.6818 132.161 25.8182C131.843 25.9545 131.596 26.1392 131.42 26.3722C131.244 26.5994 131.156 26.8835 131.156 27.2244C131.156 27.7188 131.335 28.0966 131.692 28.358C132.056 28.6136 132.516 28.7415 133.073 28.7415ZM142.222 17.9091H145.853V31.6477C145.853 32.6591 145.654 33.4773 145.256 34.1023C144.859 34.7273 144.288 35.1847 143.543 35.4744C142.805 35.7642 141.921 35.9091 140.893 35.9091C140.768 35.9091 140.648 35.9063 140.535 35.9006C140.415 35.9006 140.29 35.8977 140.16 35.892V33.054C140.256 33.0597 140.342 33.0625 140.415 33.0625C140.484 33.0682 140.558 33.071 140.637 33.071C141.222 33.071 141.631 32.946 141.864 32.696C142.103 32.4517 142.222 32.0824 142.222 31.5881V17.9091ZM144.029 16.2216C143.495 16.2216 143.035 16.0426 142.648 15.6847C142.262 15.321 142.069 14.8864 142.069 14.3807C142.069 13.8807 142.262 13.4517 142.648 13.0938C143.035 12.7301 143.495 12.5483 144.029 12.5483C144.575 12.5483 145.038 12.7301 145.418 13.0938C145.805 13.4517 145.998 13.8807 145.998 14.3807C145.998 14.8864 145.805 15.321 145.418 15.6847C145.038 16.0426 144.575 16.2216 144.029 16.2216ZM157.156 25.4261V17.9091H160.787V31H157.301V28.6222H157.165C156.869 29.3892 156.378 30.0057 155.69 30.4716C155.009 30.9375 154.176 31.1705 153.193 31.1705C152.318 31.1705 151.548 30.9716 150.884 30.5739C150.219 30.1761 149.699 29.6108 149.324 28.8778C148.955 28.1449 148.767 27.267 148.761 26.2443V17.9091H152.392V25.5966C152.398 26.3693 152.605 26.9801 153.014 27.429C153.423 27.8778 153.972 28.1023 154.659 28.1023C155.097 28.1023 155.506 28.0028 155.886 27.804C156.267 27.5994 156.574 27.2983 156.807 26.9006C157.045 26.5028 157.162 26.0114 157.156 25.4261ZM168.515 31.2131C167.521 31.2131 166.62 30.9574 165.813 30.446C165.012 29.929 164.376 29.1705 163.904 28.1705C163.438 27.1648 163.205 25.9318 163.205 24.4716C163.205 22.9716 163.447 21.7244 163.93 20.7301C164.413 19.7301 165.055 18.983 165.856 18.4886C166.663 17.9886 167.546 17.7386 168.506 17.7386C169.239 17.7386 169.85 17.8636 170.339 18.1136C170.833 18.358 171.231 18.6648 171.532 19.0341C171.839 19.3977 172.072 19.7557 172.231 20.108H172.342V13.5455H175.964V31H172.384V28.9034H172.231C172.06 29.267 171.819 29.6278 171.506 29.9858C171.2 30.3381 170.799 30.6307 170.305 30.8636C169.816 31.0966 169.219 31.2131 168.515 31.2131ZM169.665 28.3239C170.251 28.3239 170.745 28.1648 171.148 27.8466C171.558 27.5227 171.87 27.071 172.086 26.4915C172.308 25.9119 172.418 25.233 172.418 24.4545C172.418 23.6761 172.31 23 172.094 22.4261C171.879 21.8523 171.566 21.4091 171.157 21.0966C170.748 20.7841 170.251 20.6278 169.665 20.6278C169.069 20.6278 168.566 20.7898 168.157 21.1136C167.748 21.4375 167.438 21.8864 167.228 22.4602C167.018 23.0341 166.913 23.6989 166.913 24.4545C166.913 25.2159 167.018 25.8892 167.228 26.4744C167.444 27.054 167.754 27.5085 168.157 27.8381C168.566 28.1619 169.069 28.3239 169.665 28.3239ZM184.915 31.2557C183.568 31.2557 182.409 30.983 181.438 30.4375C180.472 29.8864 179.727 29.108 179.205 28.1023C178.682 27.0909 178.42 25.8949 178.42 24.5142C178.42 23.1676 178.682 21.9858 179.205 20.9688C179.727 19.9517 180.463 19.1591 181.412 18.5909C182.366 18.0227 183.486 17.7386 184.77 17.7386C185.634 17.7386 186.438 17.8778 187.182 18.1562C187.932 18.429 188.585 18.8409 189.142 19.392C189.705 19.9432 190.142 20.6364 190.455 21.4716C190.767 22.3011 190.923 23.2727 190.923 24.3864V25.3835H179.869V23.1335H187.506C187.506 22.6108 187.392 22.1477 187.165 21.7443C186.938 21.3409 186.622 21.0256 186.219 20.7983C185.821 20.5653 185.358 20.4489 184.83 20.4489C184.278 20.4489 183.79 20.5767 183.364 20.8324C182.943 21.0824 182.614 21.4205 182.375 21.8466C182.136 22.267 182.014 22.7358 182.009 23.2528V25.392C182.009 26.0398 182.128 26.5994 182.366 27.071C182.611 27.5426 182.955 27.9062 183.398 28.1619C183.841 28.4176 184.366 28.5455 184.974 28.5455C185.378 28.5455 185.747 28.4886 186.082 28.375C186.418 28.2614 186.705 28.0909 186.943 27.8636C187.182 27.6364 187.364 27.358 187.489 27.0284L190.847 27.25C190.676 28.0568 190.327 28.7614 189.798 29.3636C189.276 29.9602 188.599 30.4261 187.77 30.7614C186.946 31.0909 185.994 31.2557 184.915 31.2557ZM204.813 31.2557C203.467 31.2557 202.308 30.983 201.336 30.4375C200.37 29.8864 199.626 29.108 199.103 28.1023C198.58 27.0909 198.319 25.8949 198.319 24.5142C198.319 23.1676 198.58 21.9858 199.103 20.9688C199.626 19.9517 200.362 19.1591 201.31 18.5909C202.265 18.0227 203.384 17.7386 204.668 17.7386C205.532 17.7386 206.336 17.8778 207.08 18.1562C207.83 18.429 208.484 18.8409 209.04 19.392C209.603 19.9432 210.04 20.6364 210.353 21.4716C210.665 22.3011 210.822 23.2727 210.822 24.3864V25.3835H199.768V23.1335H207.404C207.404 22.6108 207.29 22.1477 207.063 21.7443C206.836 21.3409 206.521 21.0256 206.117 20.7983C205.719 20.5653 205.256 20.4489 204.728 20.4489C204.177 20.4489 203.688 20.5767 203.262 20.8324C202.842 21.0824 202.512 21.4205 202.273 21.8466C202.035 22.267 201.913 22.7358 201.907 23.2528V25.392C201.907 26.0398 202.026 26.5994 202.265 27.071C202.509 27.5426 202.853 27.9062 203.296 28.1619C203.739 28.4176 204.265 28.5455 204.873 28.5455C205.276 28.5455 205.646 28.4886 205.981 28.375C206.316 28.2614 206.603 28.0909 206.842 27.8636C207.08 27.6364 207.262 27.358 207.387 27.0284L210.745 27.25C210.575 28.0568 210.225 28.7614 209.697 29.3636C209.174 29.9602 208.498 30.4261 207.668 30.7614C206.844 31.0909 205.893 31.2557 204.813 31.2557ZM224.083 21.642L220.759 21.8466C220.702 21.5625 220.58 21.3068 220.393 21.0795C220.205 20.8466 219.958 20.6619 219.651 20.5256C219.35 20.3835 218.989 20.3125 218.569 20.3125C218.006 20.3125 217.532 20.4318 217.146 20.6705C216.759 20.9034 216.566 21.2159 216.566 21.608C216.566 21.9205 216.691 22.1847 216.941 22.4006C217.191 22.6165 217.62 22.7898 218.228 22.9205L220.597 23.3977C221.87 23.6591 222.819 24.0795 223.444 24.6591C224.069 25.2386 224.381 26 224.381 26.9432C224.381 27.8011 224.129 28.554 223.623 29.2017C223.123 29.8494 222.435 30.3551 221.56 30.7188C220.691 31.0767 219.688 31.2557 218.552 31.2557C216.819 31.2557 215.438 30.8949 214.41 30.1733C213.387 29.446 212.788 28.4574 212.612 27.2074L216.183 27.0199C216.29 27.5483 216.552 27.9517 216.967 28.2301C217.381 28.5028 217.913 28.6392 218.56 28.6392C219.197 28.6392 219.708 28.517 220.094 28.2727C220.487 28.0227 220.685 27.7017 220.691 27.3097C220.685 26.9801 220.546 26.7102 220.273 26.5C220.001 26.2841 219.58 26.1193 219.012 26.0057L216.745 25.554C215.467 25.2983 214.515 24.8551 213.89 24.2244C213.271 23.5937 212.961 22.7898 212.961 21.8125C212.961 20.9716 213.188 20.2472 213.643 19.6392C214.103 19.0312 214.748 18.5625 215.577 18.233C216.413 17.9034 217.39 17.7386 218.509 17.7386C220.163 17.7386 221.464 18.0881 222.413 18.7869C223.367 19.4858 223.924 20.4375 224.083 21.642ZM233.631 17.9091V20.6364H225.747V17.9091H233.631ZM227.537 14.7727H231.168V26.9773C231.168 27.3125 231.219 27.5739 231.321 27.7614C231.423 27.9432 231.565 28.071 231.747 28.1449C231.935 28.2187 232.151 28.2557 232.395 28.2557C232.565 28.2557 232.736 28.2415 232.906 28.2131C233.077 28.179 233.207 28.1534 233.298 28.1364L233.869 30.8381C233.688 30.8949 233.432 30.9602 233.102 31.0341C232.773 31.1136 232.372 31.1619 231.901 31.179C231.026 31.2131 230.259 31.0966 229.599 30.8295C228.946 30.5625 228.438 30.1477 228.074 29.5852C227.71 29.0227 227.531 28.3125 227.537 27.4545V14.7727ZM244.391 25.4261V17.9091H248.021V31H244.536V28.6222H244.399C244.104 29.3892 243.612 30.0057 242.925 30.4716C242.243 30.9375 241.411 31.1705 240.428 31.1705C239.553 31.1705 238.783 30.9716 238.118 30.5739C237.453 30.1761 236.933 29.6108 236.558 28.8778C236.189 28.1449 236.001 27.267 235.996 26.2443V17.9091H239.626V25.5966C239.632 26.3693 239.839 26.9801 240.249 27.429C240.658 27.8778 241.206 28.1023 241.893 28.1023C242.331 28.1023 242.74 28.0028 243.121 27.804C243.501 27.5994 243.808 27.2983 244.041 26.9006C244.28 26.5028 244.396 26.0114 244.391 25.4261ZM255.749 31.2131C254.755 31.2131 253.854 30.9574 253.048 30.446C252.246 29.929 251.61 29.1705 251.138 28.1705C250.673 27.1648 250.44 25.9318 250.44 24.4716C250.44 22.9716 250.681 21.7244 251.164 20.7301C251.647 19.7301 252.289 18.983 253.09 18.4886C253.897 17.9886 254.781 17.7386 255.741 17.7386C256.474 17.7386 257.085 17.8636 257.573 18.1136C258.067 18.358 258.465 18.6648 258.766 19.0341C259.073 19.3977 259.306 19.7557 259.465 20.108H259.576V13.5455H263.198V31H259.619V28.9034H259.465C259.295 29.267 259.053 29.6278 258.741 29.9858C258.434 30.3381 258.033 30.6307 257.539 30.8636C257.05 31.0966 256.454 31.2131 255.749 31.2131ZM256.9 28.3239C257.485 28.3239 257.979 28.1648 258.383 27.8466C258.792 27.5227 259.104 27.071 259.32 26.4915C259.542 25.9119 259.653 25.233 259.653 24.4545C259.653 23.6761 259.545 23 259.329 22.4261C259.113 21.8523 258.8 21.4091 258.391 21.0966C257.982 20.7841 257.485 20.6278 256.9 20.6278C256.303 20.6278 255.8 20.7898 255.391 21.1136C254.982 21.4375 254.673 21.8864 254.462 22.4602C254.252 23.0341 254.147 23.6989 254.147 24.4545C254.147 25.2159 254.252 25.8892 254.462 26.4744C254.678 27.054 254.988 27.5085 255.391 27.8381C255.8 28.1619 256.303 28.3239 256.9 28.3239ZM269.916 31.2472C269.081 31.2472 268.337 31.1023 267.683 30.8125C267.03 30.517 266.513 30.0824 266.132 29.5085C265.757 28.929 265.57 28.2074 265.57 27.3438C265.57 26.6165 265.703 26.0057 265.97 25.5114C266.237 25.017 266.601 24.6193 267.061 24.3182C267.521 24.017 268.044 23.7898 268.629 23.6364C269.22 23.483 269.839 23.375 270.487 23.3125C271.249 23.233 271.862 23.1591 272.328 23.0909C272.794 23.017 273.132 22.9091 273.342 22.767C273.553 22.625 273.658 22.4148 273.658 22.1364V22.0852C273.658 21.5455 273.487 21.1278 273.146 20.8324C272.811 20.5369 272.334 20.3892 271.714 20.3892C271.061 20.3892 270.541 20.5341 270.155 20.8239C269.768 21.108 269.513 21.4659 269.388 21.8977L266.03 21.625C266.2 20.8295 266.536 20.142 267.036 19.5625C267.536 18.9773 268.18 18.5284 268.97 18.2159C269.766 17.8977 270.686 17.7386 271.732 17.7386C272.459 17.7386 273.155 17.8239 273.82 17.9943C274.49 18.1648 275.084 18.429 275.601 18.7869C276.124 19.1449 276.536 19.6051 276.837 20.1676C277.138 20.7244 277.288 21.392 277.288 22.1705V31H273.845V29.1847H273.743C273.533 29.5938 273.251 29.9545 272.899 30.267C272.547 30.5739 272.124 30.8153 271.629 30.9915C271.135 31.1619 270.564 31.2472 269.916 31.2472ZM270.956 28.7415C271.49 28.7415 271.962 28.6364 272.371 28.4261C272.78 28.2102 273.101 27.9205 273.334 27.5568C273.567 27.1932 273.683 26.7812 273.683 26.321V24.9318C273.57 25.0057 273.413 25.0739 273.214 25.1364C273.021 25.1932 272.803 25.2472 272.558 25.2983C272.314 25.3437 272.07 25.3864 271.825 25.4261C271.581 25.4602 271.359 25.4915 271.161 25.5199C270.734 25.5824 270.362 25.6818 270.044 25.8182C269.726 25.9545 269.479 26.1392 269.303 26.3722C269.126 26.5994 269.038 26.8835 269.038 27.2244C269.038 27.7188 269.217 28.0966 269.575 28.358C269.939 28.6136 270.399 28.7415 270.956 28.7415ZM283.736 23.4318V31H280.105V17.9091H283.565V20.2188H283.719C284.009 19.4574 284.494 18.8551 285.176 18.4119C285.858 17.9631 286.685 17.7386 287.656 17.7386C288.565 17.7386 289.358 17.9375 290.034 18.3352C290.71 18.733 291.236 19.3011 291.611 20.0398C291.986 20.7727 292.173 21.6477 292.173 22.6648V31H288.543V23.3125C288.548 22.5114 288.344 21.8864 287.929 21.4375C287.514 20.983 286.943 20.7557 286.216 20.7557C285.727 20.7557 285.295 20.8608 284.92 21.071C284.551 21.2812 284.261 21.5881 284.051 21.9915C283.847 22.3892 283.741 22.8693 283.736 23.4318ZM301.998 17.9091V20.6364H294.114V17.9091H301.998ZM295.904 14.7727H299.535V26.9773C299.535 27.3125 299.586 27.5739 299.688 27.7614C299.79 27.9432 299.933 28.071 300.114 28.1449C300.302 28.2187 300.518 28.2557 300.762 28.2557C300.933 28.2557 301.103 28.2415 301.273 28.2131C301.444 28.179 301.575 28.1534 301.665 28.1364L302.237 30.8381C302.055 30.8949 301.799 30.9602 301.469 31.0341C301.14 31.1136 300.739 31.1619 300.268 31.179C299.393 31.2131 298.626 31.0966 297.967 30.8295C297.313 30.5625 296.805 30.1477 296.441 29.5852C296.077 29.0227 295.898 28.3125 295.904 27.4545V14.7727ZM310.188 31.2557C308.842 31.2557 307.683 30.983 306.711 30.4375C305.745 29.8864 305.001 29.108 304.478 28.1023C303.955 27.0909 303.694 25.8949 303.694 24.5142C303.694 23.1676 303.955 21.9858 304.478 20.9688C305.001 19.9517 305.737 19.1591 306.685 18.5909C307.64 18.0227 308.759 17.7386 310.043 17.7386C310.907 17.7386 311.711 17.8778 312.455 18.1562C313.205 18.429 313.859 18.8409 314.415 19.392C314.978 19.9432 315.415 20.6364 315.728 21.4716C316.04 22.3011 316.197 23.2727 316.197 24.3864V25.3835H305.143V23.1335H312.779C312.779 22.6108 312.665 22.1477 312.438 21.7443C312.211 21.3409 311.896 21.0256 311.492 20.7983C311.094 20.5653 310.631 20.4489 310.103 20.4489C309.552 20.4489 309.063 20.5767 308.637 20.8324C308.217 21.0824 307.887 21.4205 307.648 21.8466C307.41 22.267 307.288 22.7358 307.282 23.2528V25.392C307.282 26.0398 307.401 26.5994 307.64 27.071C307.884 27.5426 308.228 27.9062 308.671 28.1619C309.114 28.4176 309.64 28.5455 310.248 28.5455C310.651 28.5455 311.021 28.4886 311.356 28.375C311.691 28.2614 311.978 28.0909 312.217 27.8636C312.455 27.6364 312.637 27.358 312.762 27.0284L316.12 27.25C315.95 28.0568 315.6 28.7614 315.072 29.3636C314.549 29.9602 313.873 30.4261 313.043 30.7614C312.219 31.0909 311.268 31.2557 310.188 31.2557ZM329.458 21.642L326.134 21.8466C326.077 21.5625 325.955 21.3068 325.768 21.0795C325.58 20.8466 325.333 20.6619 325.026 20.5256C324.725 20.3835 324.364 20.3125 323.944 20.3125C323.381 20.3125 322.907 20.4318 322.521 20.6705C322.134 20.9034 321.941 21.2159 321.941 21.608C321.941 21.9205 322.066 22.1847 322.316 22.4006C322.566 22.6165 322.995 22.7898 323.603 22.9205L325.972 23.3977C327.245 23.6591 328.194 24.0795 328.819 24.6591C329.444 25.2386 329.756 26 329.756 26.9432C329.756 27.8011 329.504 28.554 328.998 29.2017C328.498 29.8494 327.81 30.3551 326.935 30.7188C326.066 31.0767 325.063 31.2557 323.927 31.2557C322.194 31.2557 320.813 30.8949 319.785 30.1733C318.762 29.446 318.163 28.4574 317.987 27.2074L321.558 27.0199C321.665 27.5483 321.927 27.9517 322.342 28.2301C322.756 28.5028 323.288 28.6392 323.935 28.6392C324.572 28.6392 325.083 28.517 325.469 28.2727C325.862 28.0227 326.06 27.7017 326.066 27.3097C326.06 26.9801 325.921 26.7102 325.648 26.5C325.376 26.2841 324.955 26.1193 324.387 26.0057L322.12 25.554C320.842 25.2983 319.89 24.8551 319.265 24.2244C318.646 23.5937 318.336 22.7898 318.336 21.8125C318.336 20.9716 318.563 20.2472 319.018 19.6392C319.478 19.0312 320.123 18.5625 320.952 18.233C321.788 17.9034 322.765 17.7386 323.884 17.7386C325.538 17.7386 326.839 18.0881 327.788 18.7869C328.742 19.4858 329.299 20.4375 329.458 21.642ZM15.4148 60.2557C14.0682 60.2557 12.9091 59.983 11.9375 59.4375C10.9716 58.8864 10.2273 58.108 9.70455 57.1023C9.18182 56.0909 8.92045 54.8949 8.92045 53.5142C8.92045 52.1676 9.18182 50.9858 9.70455 49.9688C10.2273 48.9517 10.9631 48.1591 11.9119 47.5909C12.8665 47.0227 13.9858 46.7386 15.2699 46.7386C16.1335 46.7386 16.9375 46.8778 17.6818 47.1562C18.4318 47.429 19.0852 47.8409 19.642 48.392C20.2045 48.9432 20.642 49.6364 20.9545 50.4716C21.267 51.3011 21.4233 52.2727 21.4233 53.3864V54.3835H10.3693V52.1335H18.0057C18.0057 51.6108 17.892 51.1477 17.6648 50.7443C17.4375 50.3409 17.1222 50.0256 16.7188 49.7983C16.321 49.5653 15.858 49.4489 15.3295 49.4489C14.7784 49.4489 14.2898 49.5767 13.8636 49.8324C13.4432 50.0824 13.1136 50.4205 12.875 50.8466C12.6364 51.267 12.5142 51.7358 12.5085 52.2528V54.392C12.5085 55.0398 12.6278 55.5994 12.8665 56.071C13.1108 56.5426 13.4545 56.9062 13.8977 57.1619C14.3409 57.4176 14.8665 57.5455 15.4744 57.5455C15.8778 57.5455 16.2472 57.4886 16.5824 57.375C16.9176 57.2614 17.2045 57.0909 17.4432 56.8636C17.6818 56.6364 17.8636 56.358 17.9886 56.0284L21.3466 56.25C21.1761 57.0568 20.8267 57.7614 20.2983 58.3636C19.7756 58.9602 19.0994 59.4261 18.2699 59.7614C17.446 60.0909 16.4943 60.2557 15.4148 60.2557ZM23.7926 60V46.9091H27.2528V49.2188H27.4062C27.679 48.4517 28.1335 47.8466 28.7699 47.4034C29.4062 46.9602 30.1676 46.7386 31.054 46.7386C31.9517 46.7386 32.7159 46.9631 33.3466 47.4119C33.9773 47.8551 34.3977 48.4574 34.608 49.2188H34.7443C35.0114 48.4688 35.4943 47.8693 36.1932 47.4205C36.8977 46.9659 37.7301 46.7386 38.6903 46.7386C39.9119 46.7386 40.9034 47.1278 41.6648 47.9062C42.4318 48.679 42.8153 49.7756 42.8153 51.196V60H39.1932V51.9119C39.1932 51.1847 39 50.6392 38.6136 50.2756C38.2273 49.9119 37.7443 49.7301 37.1648 49.7301C36.5057 49.7301 35.9915 49.9403 35.6222 50.3608C35.2528 50.7756 35.0682 51.3239 35.0682 52.0057V60H31.5483V51.8352C31.5483 51.1932 31.3636 50.6818 30.9943 50.3011C30.6307 49.9205 30.1506 49.7301 29.554 49.7301C29.1506 49.7301 28.7869 49.8324 28.4631 50.0369C28.1449 50.2358 27.892 50.517 27.7045 50.8807C27.517 51.2386 27.4233 51.6591 27.4233 52.142V60H23.7926ZM45.6832 64.9091V46.9091H49.2628V49.108H49.4247C49.5838 48.7557 49.8139 48.3977 50.1151 48.0341C50.4219 47.6648 50.8196 47.358 51.3082 47.1136C51.8026 46.8636 52.4162 46.7386 53.1491 46.7386C54.1037 46.7386 54.9844 46.9886 55.7912 47.4886C56.598 47.983 57.2429 48.7301 57.7259 49.7301C58.2088 50.7244 58.4503 51.9716 58.4503 53.4716C58.4503 54.9318 58.2145 56.1648 57.7429 57.1705C57.277 58.1705 56.6406 58.929 55.8338 59.446C55.0327 59.9574 54.1349 60.2131 53.1406 60.2131C52.4361 60.2131 51.8366 60.0966 51.3423 59.8636C50.8537 59.6307 50.4531 59.3381 50.1406 58.9858C49.8281 58.6278 49.5895 58.267 49.4247 57.9034H49.3139V64.9091H45.6832ZM49.2372 53.4545C49.2372 54.233 49.3452 54.9119 49.5611 55.4915C49.777 56.071 50.0895 56.5227 50.4986 56.8466C50.9077 57.1648 51.4048 57.3239 51.9901 57.3239C52.581 57.3239 53.081 57.1619 53.4901 56.8381C53.8991 56.5085 54.2088 56.054 54.419 55.4744C54.6349 54.8892 54.7429 54.2159 54.7429 53.4545C54.7429 52.6989 54.6378 52.0341 54.4276 51.4602C54.2173 50.8864 53.9077 50.4375 53.4986 50.1136C53.0895 49.7898 52.5866 49.6278 51.9901 49.6278C51.3991 49.6278 50.8991 49.7841 50.4901 50.0966C50.0866 50.4091 49.777 50.8523 49.5611 51.4261C49.3452 52 49.2372 52.6761 49.2372 53.4545ZM60.8707 60V46.9091H64.3906V49.1932H64.527C64.7656 48.3807 65.1662 47.767 65.7287 47.3523C66.2912 46.9318 66.9389 46.7216 67.6719 46.7216C67.8537 46.7216 68.0497 46.733 68.2599 46.7557C68.4702 46.7784 68.6548 46.8097 68.8139 46.8494V50.071C68.6435 50.0199 68.4077 49.9744 68.1065 49.9347C67.8054 49.8949 67.5298 49.875 67.2798 49.875C66.7457 49.875 66.2685 49.9915 65.848 50.2244C65.4332 50.4517 65.1037 50.7699 64.8594 51.179C64.6207 51.5881 64.5014 52.0597 64.5014 52.5938V60H60.8707ZM76.0476 60.2557C74.701 60.2557 73.5419 59.983 72.5703 59.4375C71.6044 58.8864 70.8601 58.108 70.3374 57.1023C69.8146 56.0909 69.5533 54.8949 69.5533 53.5142C69.5533 52.1676 69.8146 50.9858 70.3374 49.9688C70.8601 48.9517 71.5959 48.1591 72.5447 47.5909C73.4993 47.0227 74.6186 46.7386 75.9027 46.7386C76.7663 46.7386 77.5703 46.8778 78.3146 47.1562C79.0646 47.429 79.718 47.8409 80.2749 48.392C80.8374 48.9432 81.2749 49.6364 81.5874 50.4716C81.8999 51.3011 82.0561 52.2727 82.0561 53.3864V54.3835H71.0021V52.1335H78.6385C78.6385 51.6108 78.5249 51.1477 78.2976 50.7443C78.0703 50.3409 77.755 50.0256 77.3516 49.7983C76.9538 49.5653 76.4908 49.4489 75.9624 49.4489C75.4112 49.4489 74.9226 49.5767 74.4964 49.8324C74.076 50.0824 73.7464 50.4205 73.5078 50.8466C73.2692 51.267 73.147 51.7358 73.1413 52.2528V54.392C73.1413 55.0398 73.2607 55.5994 73.4993 56.071C73.7436 56.5426 74.0874 56.9062 74.5305 57.1619C74.9737 57.4176 75.4993 57.5455 76.1072 57.5455C76.5107 57.5455 76.88 57.4886 77.2152 57.375C77.5504 57.2614 77.8374 57.0909 78.076 56.8636C78.3146 56.6364 78.4964 56.358 78.6214 56.0284L81.9794 56.25C81.8089 57.0568 81.4595 57.7614 80.9311 58.3636C80.4084 58.9602 79.7322 59.4261 78.9027 59.7614C78.0788 60.0909 77.1271 60.2557 76.0476 60.2557ZM90.3913 60.2557C89.0447 60.2557 87.8857 59.983 86.9141 59.4375C85.9482 58.8864 85.2038 58.108 84.6811 57.1023C84.1584 56.0909 83.897 54.8949 83.897 53.5142C83.897 52.1676 84.1584 50.9858 84.6811 49.9688C85.2038 48.9517 85.9396 48.1591 86.8885 47.5909C87.843 47.0227 88.9624 46.7386 90.2464 46.7386C91.1101 46.7386 91.9141 46.8778 92.6584 47.1562C93.4084 47.429 94.0618 47.8409 94.6186 48.392C95.1811 48.9432 95.6186 49.6364 95.9311 50.4716C96.2436 51.3011 96.3999 52.2727 96.3999 53.3864V54.3835H85.3459V52.1335H92.9822C92.9822 51.6108 92.8686 51.1477 92.6413 50.7443C92.4141 50.3409 92.0987 50.0256 91.6953 49.7983C91.2976 49.5653 90.8345 49.4489 90.3061 49.4489C89.755 49.4489 89.2663 49.5767 88.8402 49.8324C88.4197 50.0824 88.0902 50.4205 87.8516 50.8466C87.6129 51.267 87.4908 51.7358 87.4851 52.2528V54.392C87.4851 55.0398 87.6044 55.5994 87.843 56.071C88.0874 56.5426 88.4311 56.9062 88.8743 57.1619C89.3175 57.4176 89.843 57.5455 90.451 57.5455C90.8544 57.5455 91.2237 57.4886 91.5589 57.375C91.8942 57.2614 92.1811 57.0909 92.4197 56.8636C92.6584 56.6364 92.8402 56.358 92.9652 56.0284L96.3232 56.25C96.1527 57.0568 95.8033 57.7614 95.2749 58.3636C94.7521 58.9602 94.076 59.4261 93.2464 59.7614C92.4226 60.0909 91.4709 60.2557 90.3913 60.2557ZM102.4 52.4318V60H98.7692V46.9091H102.229V49.2188H102.383C102.673 48.4574 103.158 47.8551 103.84 47.4119C104.522 46.9631 105.349 46.7386 106.32 46.7386C107.229 46.7386 108.022 46.9375 108.698 47.3352C109.374 47.733 109.9 48.3011 110.275 49.0398C110.65 49.7727 110.837 50.6477 110.837 51.6648V60H107.207V52.3125C107.212 51.5114 107.008 50.8864 106.593 50.4375C106.178 49.983 105.607 49.7557 104.88 49.7557C104.391 49.7557 103.96 49.8608 103.585 50.071C103.215 50.2812 102.925 50.5881 102.715 50.9915C102.511 51.3892 102.406 51.8693 102.4 52.4318ZM118.523 60.2131C117.528 60.2131 116.628 59.9574 115.821 59.446C115.02 58.929 114.384 58.1705 113.912 57.1705C113.446 56.1648 113.213 54.9318 113.213 53.4716C113.213 51.9716 113.455 50.7244 113.938 49.7301C114.42 48.7301 115.063 47.983 115.864 47.4886C116.67 46.9886 117.554 46.7386 118.514 46.7386C119.247 46.7386 119.858 46.8636 120.347 47.1136C120.841 47.358 121.239 47.6648 121.54 48.0341C121.847 48.3977 122.08 48.7557 122.239 49.108H122.349V42.5455H125.972V60H122.392V57.9034H122.239C122.068 58.267 121.827 58.6278 121.514 58.9858C121.207 59.3381 120.807 59.6307 120.312 59.8636C119.824 60.0966 119.227 60.2131 118.523 60.2131ZM119.673 57.3239C120.259 57.3239 120.753 57.1648 121.156 56.8466C121.565 56.5227 121.878 56.071 122.094 55.4915C122.315 54.9119 122.426 54.233 122.426 53.4545C122.426 52.6761 122.318 52 122.102 51.4261C121.886 50.8523 121.574 50.4091 121.165 50.0966C120.756 49.7841 120.259 49.6278 119.673 49.6278C119.077 49.6278 118.574 49.7898 118.165 50.1136C117.756 50.4375 117.446 50.8864 117.236 51.4602C117.026 52.0341 116.92 52.6989 116.92 53.4545C116.92 54.2159 117.026 54.8892 117.236 55.4744C117.452 56.054 117.761 56.5085 118.165 56.8381C118.574 57.1619 119.077 57.3239 119.673 57.3239ZM134.923 60.2557C133.576 60.2557 132.417 59.983 131.445 59.4375C130.479 58.8864 129.735 58.108 129.212 57.1023C128.69 56.0909 128.428 54.8949 128.428 53.5142C128.428 52.1676 128.69 50.9858 129.212 49.9688C129.735 48.9517 130.471 48.1591 131.42 47.5909C132.374 47.0227 133.494 46.7386 134.778 46.7386C135.641 46.7386 136.445 46.8778 137.19 47.1562C137.94 47.429 138.593 47.8409 139.15 48.392C139.712 48.9432 140.15 49.6364 140.462 50.4716C140.775 51.3011 140.931 52.2727 140.931 53.3864V54.3835H129.877V52.1335H137.513C137.513 51.6108 137.4 51.1477 137.173 50.7443C136.945 50.3409 136.63 50.0256 136.227 49.7983C135.829 49.5653 135.366 49.4489 134.837 49.4489C134.286 49.4489 133.798 49.5767 133.371 49.8324C132.951 50.0824 132.621 50.4205 132.383 50.8466C132.144 51.267 132.022 51.7358 132.016 52.2528V54.392C132.016 55.0398 132.136 55.5994 132.374 56.071C132.619 56.5426 132.962 56.9062 133.406 57.1619C133.849 57.4176 134.374 57.5455 134.982 57.5455C135.386 57.5455 135.755 57.4886 136.09 57.375C136.425 57.2614 136.712 57.0909 136.951 56.8636C137.19 56.6364 137.371 56.358 137.496 56.0284L140.854 56.25C140.684 57.0568 140.335 57.7614 139.806 58.3636C139.283 58.9602 138.607 59.4261 137.778 59.7614C136.954 60.0909 136.002 60.2557 134.923 60.2557ZM148.124 60.2131C147.13 60.2131 146.229 59.9574 145.423 59.446C144.621 58.929 143.985 58.1705 143.513 57.1705C143.048 56.1648 142.815 54.9318 142.815 53.4716C142.815 51.9716 143.056 50.7244 143.539 49.7301C144.022 48.7301 144.664 47.983 145.465 47.4886C146.272 46.9886 147.156 46.7386 148.116 46.7386C148.849 46.7386 149.46 46.8636 149.948 47.1136C150.442 47.358 150.84 47.6648 151.141 48.0341C151.448 48.3977 151.681 48.7557 151.84 49.108H151.951V42.5455H155.573V60H151.994V57.9034H151.84C151.67 58.267 151.428 58.6278 151.116 58.9858C150.809 59.3381 150.408 59.6307 149.914 59.8636C149.425 60.0966 148.829 60.2131 148.124 60.2131ZM149.275 57.3239C149.86 57.3239 150.354 57.1648 150.758 56.8466C151.167 56.5227 151.479 56.071 151.695 55.4915C151.917 54.9119 152.028 54.233 152.028 53.4545C152.028 52.6761 151.92 52 151.704 51.4261C151.488 50.8523 151.175 50.4091 150.766 50.0966C150.357 49.7841 149.86 49.6278 149.275 49.6278C148.678 49.6278 148.175 49.7898 147.766 50.1136C147.357 50.4375 147.048 50.8864 146.837 51.4602C146.627 52.0341 146.522 52.6989 146.522 53.4545C146.522 54.2159 146.627 54.8892 146.837 55.4744C147.053 56.054 147.363 56.5085 147.766 56.8381C148.175 57.1619 148.678 57.3239 149.275 57.3239ZM164.473 60.2557C163.149 60.2557 162.004 59.9744 161.038 59.4119C160.078 58.8437 159.337 58.054 158.814 57.0426C158.291 56.0256 158.03 54.8466 158.03 53.5057C158.03 52.1534 158.291 50.9716 158.814 49.9602C159.337 48.9432 160.078 48.1534 161.038 47.5909C162.004 47.0227 163.149 46.7386 164.473 46.7386C165.797 46.7386 166.939 47.0227 167.899 47.5909C168.865 48.1534 169.609 48.9432 170.132 49.9602C170.655 50.9716 170.916 52.1534 170.916 53.5057C170.916 54.8466 170.655 56.0256 170.132 57.0426C169.609 58.054 168.865 58.8437 167.899 59.4119C166.939 59.9744 165.797 60.2557 164.473 60.2557ZM164.49 57.4432C165.092 57.4432 165.595 57.2727 165.999 56.9318C166.402 56.5852 166.706 56.1136 166.911 55.517C167.121 54.9205 167.226 54.2415 167.226 53.4801C167.226 52.7188 167.121 52.0398 166.911 51.4432C166.706 50.8466 166.402 50.375 165.999 50.0284C165.595 49.6818 165.092 49.5085 164.49 49.5085C163.882 49.5085 163.371 49.6818 162.956 50.0284C162.547 50.375 162.237 50.8466 162.027 51.4432C161.822 52.0398 161.72 52.7188 161.72 53.4801C161.72 54.2415 161.822 54.9205 162.027 55.517C162.237 56.1136 162.547 56.5852 162.956 56.9318C163.371 57.2727 163.882 57.4432 164.49 57.4432ZM173.277 60V46.9091H176.797V49.1932H176.933C177.172 48.3807 177.572 47.767 178.135 47.3523C178.697 46.9318 179.345 46.7216 180.078 46.7216C180.26 46.7216 180.456 46.733 180.666 46.7557C180.876 46.7784 181.061 46.8097 181.22 46.8494V50.071C181.05 50.0199 180.814 49.9744 180.513 49.9347C180.212 49.8949 179.936 49.875 179.686 49.875C179.152 49.875 178.675 49.9915 178.254 50.2244C177.839 50.4517 177.51 50.7699 177.266 51.179C177.027 51.5881 176.908 52.0597 176.908 52.5938V60H173.277ZM188.454 60.2557C187.107 60.2557 185.948 59.983 184.977 59.4375C184.011 58.8864 183.266 58.108 182.744 57.1023C182.221 56.0909 181.96 54.8949 181.96 53.5142C181.96 52.1676 182.221 50.9858 182.744 49.9688C183.266 48.9517 184.002 48.1591 184.951 47.5909C185.906 47.0227 187.025 46.7386 188.309 46.7386C189.173 46.7386 189.977 46.8778 190.721 47.1562C191.471 47.429 192.124 47.8409 192.681 48.392C193.244 48.9432 193.681 49.6364 193.994 50.4716C194.306 51.3011 194.462 52.2727 194.462 53.3864V54.3835H183.408V52.1335H191.045C191.045 51.6108 190.931 51.1477 190.704 50.7443C190.477 50.3409 190.161 50.0256 189.758 49.7983C189.36 49.5653 188.897 49.4489 188.369 49.4489C187.817 49.4489 187.329 49.5767 186.903 49.8324C186.482 50.0824 186.153 50.4205 185.914 50.8466C185.675 51.267 185.553 51.7358 185.548 52.2528V54.392C185.548 55.0398 185.667 55.5994 185.906 56.071C186.15 56.5426 186.494 56.9062 186.937 57.1619C187.38 57.4176 187.906 57.5455 188.513 57.5455C188.917 57.5455 189.286 57.4886 189.621 57.375C189.957 57.2614 190.244 57.0909 190.482 56.8636C190.721 56.6364 190.903 56.358 191.028 56.0284L194.386 56.25C194.215 57.0568 193.866 57.7614 193.337 58.3636C192.815 58.9602 192.138 59.4261 191.309 59.7614C190.485 60.0909 189.533 60.2557 188.454 60.2557ZM207.724 50.642L204.4 50.8466C204.343 50.5625 204.221 50.3068 204.033 50.0795C203.846 49.8466 203.599 49.6619 203.292 49.5256C202.991 49.3835 202.63 49.3125 202.21 49.3125C201.647 49.3125 201.173 49.4318 200.786 49.6705C200.4 49.9034 200.207 50.2159 200.207 50.608C200.207 50.9205 200.332 51.1847 200.582 51.4006C200.832 51.6165 201.261 51.7898 201.869 51.9205L204.238 52.3977C205.511 52.6591 206.46 53.0795 207.085 53.6591C207.71 54.2386 208.022 55 208.022 55.9432C208.022 56.8011 207.769 57.554 207.263 58.2017C206.763 58.8494 206.076 59.3551 205.201 59.7188C204.332 60.0767 203.329 60.2557 202.192 60.2557C200.46 60.2557 199.079 59.8949 198.05 59.1733C197.028 58.446 196.428 57.4574 196.252 56.2074L199.823 56.0199C199.931 56.5483 200.192 56.9517 200.607 57.2301C201.022 57.5028 201.553 57.6392 202.201 57.6392C202.837 57.6392 203.349 57.517 203.735 57.2727C204.127 57.0227 204.326 56.7017 204.332 56.3097C204.326 55.9801 204.187 55.7102 203.914 55.5C203.641 55.2841 203.221 55.1193 202.653 55.0057L200.386 54.554C199.107 54.2983 198.156 53.8551 197.531 53.2244C196.911 52.5937 196.602 51.7898 196.602 50.8125C196.602 49.9716 196.829 49.2472 197.283 48.6392C197.744 48.0312 198.388 47.5625 199.218 47.233C200.053 46.9034 201.031 46.7386 202.15 46.7386C203.803 46.7386 205.104 47.0881 206.053 47.7869C207.008 48.4858 207.565 49.4375 207.724 50.642ZM220.687 60.2131C219.692 60.2131 218.792 59.9574 217.985 59.446C217.184 58.929 216.548 58.1705 216.076 57.1705C215.61 56.1648 215.377 54.9318 215.377 53.4716C215.377 51.9716 215.619 50.7244 216.102 49.7301C216.585 48.7301 217.227 47.983 218.028 47.4886C218.835 46.9886 219.718 46.7386 220.678 46.7386C221.411 46.7386 222.022 46.8636 222.511 47.1136C223.005 47.358 223.403 47.6648 223.704 48.0341C224.011 48.3977 224.244 48.7557 224.403 49.108H224.513V42.5455H228.136V60H224.556V57.9034H224.403C224.232 58.267 223.991 58.6278 223.678 58.9858C223.371 59.3381 222.971 59.6307 222.477 59.8636C221.988 60.0966 221.391 60.2131 220.687 60.2131ZM221.837 57.3239C222.423 57.3239 222.917 57.1648 223.32 56.8466C223.729 56.5227 224.042 56.071 224.258 55.4915C224.479 54.9119 224.59 54.233 224.59 53.4545C224.59 52.6761 224.482 52 224.266 51.4261C224.05 50.8523 223.738 50.4091 223.329 50.0966C222.92 49.7841 222.423 49.6278 221.837 49.6278C221.241 49.6278 220.738 49.7898 220.329 50.1136C219.92 50.4375 219.61 50.8864 219.4 51.4602C219.19 52.0341 219.085 52.6989 219.085 53.4545C219.085 54.2159 219.19 54.8892 219.4 55.4744C219.616 56.054 219.925 56.5085 220.329 56.8381C220.738 57.1619 221.241 57.3239 221.837 57.3239ZM237.087 60.2557C235.74 60.2557 234.581 59.983 233.609 59.4375C232.643 58.8864 231.899 58.108 231.376 57.1023C230.854 56.0909 230.592 54.8949 230.592 53.5142C230.592 52.1676 230.854 50.9858 231.376 49.9688C231.899 48.9517 232.635 48.1591 233.584 47.5909C234.538 47.0227 235.658 46.7386 236.942 46.7386C237.805 46.7386 238.609 46.8778 239.354 47.1562C240.104 47.429 240.757 47.8409 241.314 48.392C241.876 48.9432 242.314 49.6364 242.626 50.4716C242.939 51.3011 243.095 52.2727 243.095 53.3864V54.3835H232.041V52.1335H239.678C239.678 51.6108 239.564 51.1477 239.337 50.7443C239.109 50.3409 238.794 50.0256 238.391 49.7983C237.993 49.5653 237.53 49.4489 237.001 49.4489C236.45 49.4489 235.962 49.5767 235.536 49.8324C235.115 50.0824 234.786 50.4205 234.547 50.8466C234.308 51.267 234.186 51.7358 234.18 52.2528V54.392C234.18 55.0398 234.3 55.5994 234.538 56.071C234.783 56.5426 235.126 56.9062 235.57 57.1619C236.013 57.4176 236.538 57.5455 237.146 57.5455C237.55 57.5455 237.919 57.4886 238.254 57.375C238.589 57.2614 238.876 57.0909 239.115 56.8636C239.354 56.6364 239.536 56.358 239.661 56.0284L243.018 56.25C242.848 57.0568 242.499 57.7614 241.97 58.3636C241.447 58.9602 240.771 59.4261 239.942 59.7614C239.118 60.0909 238.166 60.2557 237.087 60.2557ZM24.9176 77.6562H21.1847C21.1165 77.1733 20.9773 76.7443 20.767 76.3693C20.5568 75.9886 20.2869 75.6648 19.9574 75.3977C19.6278 75.1307 19.2472 74.9261 18.8153 74.7841C18.3892 74.642 17.9261 74.571 17.4261 74.571C16.5227 74.571 15.7358 74.7955 15.0653 75.2443C14.3949 75.6875 13.875 76.3352 13.5057 77.1875C13.1364 78.0341 12.9517 79.0625 12.9517 80.2727C12.9517 81.517 13.1364 82.5625 13.5057 83.4091C13.8807 84.2557 14.4034 84.8949 15.0739 85.3267C15.7443 85.7585 16.5199 85.9744 17.4006 85.9744C17.8949 85.9744 18.3523 85.9091 18.7727 85.7784C19.1989 85.6477 19.5767 85.4574 19.9062 85.2074C20.2358 84.9517 20.5085 84.642 20.7244 84.2784C20.946 83.9148 21.0994 83.5 21.1847 83.0341L24.9176 83.0511C24.821 83.8523 24.5795 84.625 24.1932 85.3693C23.8125 86.108 23.2983 86.7699 22.6506 87.3551C22.0085 87.9347 21.2415 88.3949 20.3494 88.7358C19.4631 89.071 18.4602 89.2386 17.3409 89.2386C15.7841 89.2386 14.392 88.8864 13.1648 88.1818C11.9432 87.4773 10.9773 86.4574 10.267 85.1222C9.5625 83.7869 9.21023 82.1705 9.21023 80.2727C9.21023 78.3693 9.56818 76.75 10.2841 75.4148C11 74.0795 11.9716 73.0625 13.1989 72.3636C14.4261 71.6591 15.8068 71.3068 17.3409 71.3068C18.3523 71.3068 19.2898 71.4489 20.1534 71.733C21.0227 72.017 21.7926 72.4318 22.4631 72.9773C23.1335 73.517 23.679 74.179 24.0994 74.9631C24.5256 75.7472 24.7983 76.6449 24.9176 77.6562ZM31.2287 89.2472C30.3935 89.2472 29.6491 89.1023 28.9957 88.8125C28.3423 88.517 27.8253 88.0824 27.4446 87.5085C27.0696 86.929 26.8821 86.2074 26.8821 85.3438C26.8821 84.6165 27.0156 84.0057 27.2827 83.5114C27.5497 83.017 27.9134 82.6193 28.3736 82.3182C28.8338 82.017 29.3565 81.7898 29.9418 81.6364C30.5327 81.483 31.152 81.375 31.7997 81.3125C32.5611 81.233 33.1747 81.1591 33.6406 81.0909C34.1065 81.017 34.4446 80.9091 34.6548 80.767C34.8651 80.625 34.9702 80.4148 34.9702 80.1364V80.0852C34.9702 79.5455 34.7997 79.1278 34.4588 78.8324C34.1236 78.5369 33.6463 78.3892 33.027 78.3892C32.3736 78.3892 31.8537 78.5341 31.4673 78.8239C31.081 79.108 30.8253 79.4659 30.7003 79.8977L27.3423 79.625C27.5128 78.8295 27.848 78.142 28.348 77.5625C28.848 76.9773 29.4929 76.5284 30.2827 76.2159C31.0781 75.8977 31.9986 75.7386 33.044 75.7386C33.7713 75.7386 34.4673 75.8239 35.1321 75.9943C35.8026 76.1648 36.3963 76.429 36.9134 76.7869C37.4361 77.1449 37.848 77.6051 38.1491 78.1676C38.4503 78.7244 38.6009 79.392 38.6009 80.1705V89H35.1577V87.1847H35.0554C34.8452 87.5938 34.5639 87.9545 34.2116 88.267C33.8594 88.5739 33.4361 88.8153 32.9418 88.9915C32.4474 89.1619 31.8764 89.2472 31.2287 89.2472ZM32.2685 86.7415C32.8026 86.7415 33.2741 86.6364 33.6832 86.4261C34.0923 86.2102 34.4134 85.9205 34.6463 85.5568C34.8793 85.1932 34.9957 84.7812 34.9957 84.321V82.9318C34.8821 83.0057 34.7259 83.0739 34.527 83.1364C34.3338 83.1932 34.1151 83.2472 33.8707 83.2983C33.6264 83.3437 33.3821 83.3864 33.1378 83.4261C32.8935 83.4602 32.6719 83.4915 32.473 83.5199C32.0469 83.5824 31.6747 83.6818 31.3565 83.8182C31.0384 83.9545 30.7912 84.1392 30.6151 84.3722C30.4389 84.5994 30.3509 84.8835 30.3509 85.2244C30.3509 85.7188 30.5298 86.0966 30.8878 86.358C31.2514 86.6136 31.7116 86.7415 32.2685 86.7415ZM41.4176 89V75.9091H44.9375V78.1932H45.0739C45.3125 77.3807 45.7131 76.767 46.2756 76.3523C46.8381 75.9318 47.4858 75.7216 48.2188 75.7216C48.4006 75.7216 48.5966 75.733 48.8068 75.7557C49.017 75.7784 49.2017 75.8097 49.3608 75.8494V79.071C49.1903 79.0199 48.9545 78.9744 48.6534 78.9347C48.3523 78.8949 48.0767 78.875 47.8267 78.875C47.2926 78.875 46.8153 78.9915 46.3949 79.2244C45.9801 79.4517 45.6506 79.7699 45.4062 80.179C45.1676 80.5881 45.0483 81.0597 45.0483 81.5938V89H41.4176ZM54.5959 89.2472C53.7607 89.2472 53.0163 89.1023 52.3629 88.8125C51.7095 88.517 51.1925 88.0824 50.8118 87.5085C50.4368 86.929 50.2493 86.2074 50.2493 85.3438C50.2493 84.6165 50.3828 84.0057 50.6499 83.5114C50.9169 83.017 51.2805 82.6193 51.7408 82.3182C52.201 82.017 52.7237 81.7898 53.3089 81.6364C53.8999 81.483 54.5192 81.375 55.1669 81.3125C55.9283 81.233 56.5419 81.1591 57.0078 81.0909C57.4737 81.017 57.8118 80.9091 58.022 80.767C58.2322 80.625 58.3374 80.4148 58.3374 80.1364V80.0852C58.3374 79.5455 58.1669 79.1278 57.826 78.8324C57.4908 78.5369 57.0135 78.3892 56.3942 78.3892C55.7408 78.3892 55.2209 78.5341 54.8345 78.8239C54.4482 79.108 54.1925 79.4659 54.0675 79.8977L50.7095 79.625C50.88 78.8295 51.2152 78.142 51.7152 77.5625C52.2152 76.9773 52.8601 76.5284 53.6499 76.2159C54.4453 75.8977 55.3658 75.7386 56.4112 75.7386C57.1385 75.7386 57.8345 75.8239 58.4993 75.9943C59.1697 76.1648 59.7635 76.429 60.2805 76.7869C60.8033 77.1449 61.2152 77.6051 61.5163 78.1676C61.8175 78.7244 61.968 79.392 61.968 80.1705V89H58.5249V87.1847H58.4226C58.2124 87.5938 57.9311 87.9545 57.5788 88.267C57.2266 88.5739 56.8033 88.8153 56.3089 88.9915C55.8146 89.1619 55.2436 89.2472 54.5959 89.2472ZM55.6357 86.7415C56.1697 86.7415 56.6413 86.6364 57.0504 86.4261C57.4595 86.2102 57.7805 85.9205 58.0135 85.5568C58.2464 85.1932 58.3629 84.7812 58.3629 84.321V82.9318C58.2493 83.0057 58.093 83.0739 57.8942 83.1364C57.701 83.1932 57.4822 83.2472 57.2379 83.2983C56.9936 83.3437 56.7493 83.3864 56.505 83.4261C56.2607 83.4602 56.0391 83.4915 55.8402 83.5199C55.4141 83.5824 55.0419 83.6818 54.7237 83.8182C54.4055 83.9545 54.1584 84.1392 53.9822 84.3722C53.8061 84.5994 53.718 84.8835 53.718 85.2244C53.718 85.7188 53.897 86.0966 54.255 86.358C54.6186 86.6136 55.0788 86.7415 55.6357 86.7415ZM70.6825 94.1818C69.5064 94.1818 68.4979 94.0199 67.657 93.696C66.8217 93.3778 66.157 92.9432 65.6626 92.392C65.1683 91.8409 64.8473 91.2216 64.6996 90.5341L68.0575 90.0824C68.1598 90.3438 68.3217 90.5881 68.5433 90.8153C68.7649 91.0426 69.0575 91.2244 69.4212 91.3608C69.7905 91.5028 70.2393 91.5739 70.7678 91.5739C71.5575 91.5739 72.2081 91.3807 72.7195 90.9943C73.2365 90.6136 73.495 89.9744 73.495 89.0767V86.6818H73.3416C73.1825 87.0455 72.9439 87.3892 72.6257 87.7131C72.3075 88.0369 71.8984 88.3011 71.3984 88.5057C70.8984 88.7102 70.3018 88.8125 69.6087 88.8125C68.6257 88.8125 67.7308 88.5852 66.924 88.1307C66.1229 87.6705 65.4837 86.9687 65.0064 86.0256C64.5348 85.0767 64.299 83.8778 64.299 82.429C64.299 80.946 64.5405 79.7074 65.0234 78.7131C65.5064 77.7187 66.1484 76.9744 66.9496 76.4801C67.7564 75.9858 68.6399 75.7386 69.6001 75.7386C70.3331 75.7386 70.9467 75.8636 71.4411 76.1136C71.9354 76.358 72.3331 76.6648 72.6342 77.0341C72.9411 77.3977 73.1768 77.7557 73.3416 78.108H73.478V75.9091H77.0831V89.1278C77.0831 90.2415 76.8104 91.1733 76.2649 91.9233C75.7195 92.6733 74.9638 93.2358 73.9979 93.6108C73.0376 93.9915 71.9325 94.1818 70.6825 94.1818ZM70.7592 86.0852C71.3445 86.0852 71.8388 85.9403 72.2422 85.6506C72.6513 85.3551 72.9638 84.9347 73.1797 84.3892C73.4013 83.8381 73.5121 83.179 73.5121 82.4119C73.5121 81.6449 73.4041 80.9801 73.1882 80.4176C72.9723 79.8494 72.6598 79.4091 72.2507 79.0966C71.8416 78.7841 71.3445 78.6278 70.7592 78.6278C70.1626 78.6278 69.6598 78.7898 69.2507 79.1136C68.8416 79.4318 68.532 79.875 68.3217 80.4432C68.1115 81.0114 68.0064 81.6676 68.0064 82.4119C68.0064 83.1676 68.1115 83.821 68.3217 84.3722C68.5376 84.9176 68.8473 85.3409 69.2507 85.642C69.6598 85.9375 70.1626 86.0852 70.7592 86.0852ZM88.3672 83.4261V75.9091H91.9979V89H88.5121V86.6222H88.3757C88.0803 87.3892 87.5888 88.0057 86.9013 88.4716C86.2195 88.9375 85.3871 89.1705 84.4041 89.1705C83.5291 89.1705 82.7592 88.9716 82.0945 88.5739C81.4297 88.1761 80.9098 87.6108 80.5348 86.8778C80.1655 86.1449 79.978 85.267 79.9723 84.2443V75.9091H83.603V83.5966C83.6087 84.3693 83.8161 84.9801 84.2251 85.429C84.6342 85.8778 85.1825 86.1023 85.87 86.1023C86.3075 86.1023 86.7166 86.0028 87.0973 85.804C87.478 85.5994 87.7848 85.2983 88.0178 84.9006C88.2564 84.5028 88.3729 84.0114 88.3672 83.4261ZM98.6349 89.2472C97.7997 89.2472 97.0554 89.1023 96.402 88.8125C95.7486 88.517 95.2315 88.0824 94.8509 87.5085C94.4759 86.929 94.2884 86.2074 94.2884 85.3438C94.2884 84.6165 94.4219 84.0057 94.6889 83.5114C94.956 83.017 95.3196 82.6193 95.7798 82.3182C96.2401 82.017 96.7628 81.7898 97.348 81.6364C97.9389 81.483 98.5582 81.375 99.206 81.3125C99.9673 81.233 100.581 81.1591 101.047 81.0909C101.513 81.017 101.851 80.9091 102.061 80.767C102.271 80.625 102.376 80.4148 102.376 80.1364V80.0852C102.376 79.5455 102.206 79.1278 101.865 78.8324C101.53 78.5369 101.053 78.3892 100.433 78.3892C99.7798 78.3892 99.2599 78.5341 98.8736 78.8239C98.4872 79.108 98.2315 79.4659 98.1065 79.8977L94.7486 79.625C94.919 78.8295 95.2543 78.142 95.7543 77.5625C96.2543 76.9773 96.8991 76.5284 97.6889 76.2159C98.4844 75.8977 99.4048 75.7386 100.45 75.7386C101.178 75.7386 101.874 75.8239 102.538 75.9943C103.209 76.1648 103.803 76.429 104.32 76.7869C104.842 77.1449 105.254 77.6051 105.555 78.1676C105.857 78.7244 106.007 79.392 106.007 80.1705V89H102.564V87.1847H102.462C102.251 87.5938 101.97 87.9545 101.618 88.267C101.266 88.5739 100.842 88.8153 100.348 88.9915C99.8537 89.1619 99.2827 89.2472 98.6349 89.2472ZM99.6747 86.7415C100.209 86.7415 100.68 86.6364 101.089 86.4261C101.499 86.2102 101.82 85.9205 102.053 85.5568C102.286 85.1932 102.402 84.7812 102.402 84.321V82.9318C102.288 83.0057 102.132 83.0739 101.933 83.1364C101.74 83.1932 101.521 83.2472 101.277 83.2983C101.033 83.3437 100.788 83.3864 100.544 83.4261C100.3 83.4602 100.078 83.4915 99.8793 83.5199C99.4531 83.5824 99.081 83.6818 98.7628 83.8182C98.4446 83.9545 98.1974 84.1392 98.0213 84.3722C97.8452 84.5994 97.7571 84.8835 97.7571 85.2244C97.7571 85.7188 97.9361 86.0966 98.294 86.358C98.6577 86.6136 99.1179 86.7415 99.6747 86.7415ZM115.787 75.9091V78.6364H107.903V75.9091H115.787ZM109.693 72.7727H113.324V84.9773C113.324 85.3125 113.375 85.5739 113.477 85.7614C113.58 85.9432 113.722 86.071 113.903 86.1449C114.091 86.2187 114.307 86.2557 114.551 86.2557C114.722 86.2557 114.892 86.2415 115.062 86.2131C115.233 86.179 115.364 86.1534 115.455 86.1364L116.026 88.8381C115.844 88.8949 115.588 88.9602 115.259 89.0341C114.929 89.1136 114.528 89.1619 114.057 89.179C113.182 89.2131 112.415 89.0966 111.756 88.8295C111.102 88.5625 110.594 88.1477 110.23 87.5852C109.866 87.0227 109.688 86.3125 109.693 85.4545V72.7727ZM121.885 89.2472C121.05 89.2472 120.305 89.1023 119.652 88.8125C118.999 88.517 118.482 88.0824 118.101 87.5085C117.726 86.929 117.538 86.2074 117.538 85.3438C117.538 84.6165 117.672 84.0057 117.939 83.5114C118.206 83.017 118.57 82.6193 119.03 82.3182C119.49 82.017 120.013 81.7898 120.598 81.6364C121.189 81.483 121.808 81.375 122.456 81.3125C123.217 81.233 123.831 81.1591 124.297 81.0909C124.763 81.017 125.101 80.9091 125.311 80.767C125.521 80.625 125.626 80.4148 125.626 80.1364V80.0852C125.626 79.5455 125.456 79.1278 125.115 78.8324C124.78 78.5369 124.303 78.3892 123.683 78.3892C123.03 78.3892 122.51 78.5341 122.124 78.8239C121.737 79.108 121.482 79.4659 121.357 79.8977L117.999 79.625C118.169 78.8295 118.504 78.142 119.004 77.5625C119.504 76.9773 120.149 76.5284 120.939 76.2159C121.734 75.8977 122.655 75.7386 123.7 75.7386C124.428 75.7386 125.124 75.8239 125.788 75.9943C126.459 76.1648 127.053 76.429 127.57 76.7869C128.092 77.1449 128.504 77.6051 128.805 78.1676C129.107 78.7244 129.257 79.392 129.257 80.1705V89H125.814V87.1847H125.712C125.501 87.5938 125.22 87.9545 124.868 88.267C124.516 88.5739 124.092 88.8153 123.598 88.9915C123.104 89.1619 122.533 89.2472 121.885 89.2472ZM122.925 86.7415C123.459 86.7415 123.93 86.6364 124.339 86.4261C124.749 86.2102 125.07 85.9205 125.303 85.5568C125.536 85.1932 125.652 84.7812 125.652 84.321V82.9318C125.538 83.0057 125.382 83.0739 125.183 83.1364C124.99 83.1932 124.771 83.2472 124.527 83.2983C124.283 83.3437 124.038 83.3864 123.794 83.4261C123.55 83.4602 123.328 83.4915 123.129 83.5199C122.703 83.5824 122.331 83.6818 122.013 83.8182C121.695 83.9545 121.447 84.1392 121.271 84.3722C121.095 84.5994 121.007 84.8835 121.007 85.2244C121.007 85.7188 121.186 86.0966 121.544 86.358C121.908 86.6136 122.368 86.7415 122.925 86.7415ZM139.037 75.9091V78.6364H131.153V75.9091H139.037ZM132.943 72.7727H136.574V84.9773C136.574 85.3125 136.625 85.5739 136.727 85.7614C136.83 85.9432 136.972 86.071 137.153 86.1449C137.341 86.2187 137.557 86.2557 137.801 86.2557C137.972 86.2557 138.142 86.2415 138.312 86.2131C138.483 86.179 138.614 86.1534 138.705 86.1364L139.276 88.8381C139.094 88.8949 138.838 88.9602 138.509 89.0341C138.179 89.1136 137.778 89.1619 137.307 89.179C136.432 89.2131 135.665 89.0966 135.006 88.8295C134.352 88.5625 133.844 88.1477 133.48 87.5852C133.116 87.0227 132.938 86.3125 132.943 85.4545V72.7727ZM149.797 83.4261V75.9091H153.428V89H149.942V86.6222H149.805C149.51 87.3892 149.018 88.0057 148.331 88.4716C147.649 88.9375 146.817 89.1705 145.834 89.1705C144.959 89.1705 144.189 88.9716 143.524 88.5739C142.859 88.1761 142.339 87.6108 141.964 86.8778C141.595 86.1449 141.408 85.267 141.402 84.2443V75.9091H145.033V83.5966C145.038 84.3693 145.246 84.9801 145.655 85.429C146.064 85.8778 146.612 86.1023 147.3 86.1023C147.737 86.1023 148.146 86.0028 148.527 85.804C148.908 85.5994 149.214 85.2983 149.447 84.9006C149.686 84.5028 149.803 84.0114 149.797 83.4261ZM156.4 89V71.5455H160.031V78.108H160.141C160.3 77.7557 160.531 77.3977 160.832 77.0341C161.138 76.6648 161.536 76.358 162.025 76.1136C162.519 75.8636 163.133 75.7386 163.866 75.7386C164.82 75.7386 165.701 75.9886 166.508 76.4886C167.315 76.983 167.96 77.7301 168.442 78.7301C168.925 79.7244 169.167 80.9716 169.167 82.4716C169.167 83.9318 168.931 85.1648 168.46 86.1705C167.994 87.1705 167.357 87.929 166.55 88.446C165.749 88.9574 164.852 89.2131 163.857 89.2131C163.153 89.2131 162.553 89.0966 162.059 88.8636C161.57 88.6307 161.17 88.3381 160.857 87.9858C160.545 87.6278 160.306 87.267 160.141 86.9034H159.979V89H156.4ZM159.954 82.4545C159.954 83.233 160.062 83.9119 160.278 84.4915C160.494 85.071 160.806 85.5227 161.215 85.8466C161.624 86.1648 162.121 86.3239 162.707 86.3239C163.298 86.3239 163.798 86.1619 164.207 85.8381C164.616 85.5085 164.925 85.054 165.136 84.4744C165.352 83.8892 165.46 83.2159 165.46 82.4545C165.46 81.6989 165.354 81.0341 165.144 80.4602C164.934 79.8864 164.624 79.4375 164.215 79.1136C163.806 78.7898 163.303 78.6278 162.707 78.6278C162.116 78.6278 161.616 78.7841 161.207 79.0966C160.803 79.4091 160.494 79.8523 160.278 80.4261C160.062 81 159.954 81.6761 159.954 82.4545ZM175.322 89.2472C174.487 89.2472 173.743 89.1023 173.089 88.8125C172.436 88.517 171.919 88.0824 171.538 87.5085C171.163 86.929 170.976 86.2074 170.976 85.3438C170.976 84.6165 171.109 84.0057 171.376 83.5114C171.643 83.017 172.007 82.6193 172.467 82.3182C172.928 82.017 173.45 81.7898 174.036 81.6364C174.626 81.483 175.246 81.375 175.893 81.3125C176.655 81.233 177.268 81.1591 177.734 81.0909C178.2 81.017 178.538 80.9091 178.749 80.767C178.959 80.625 179.064 80.4148 179.064 80.1364V80.0852C179.064 79.5455 178.893 79.1278 178.553 78.8324C178.217 78.5369 177.74 78.3892 177.121 78.3892C176.467 78.3892 175.947 78.5341 175.561 78.8239C175.175 79.108 174.919 79.4659 174.794 79.8977L171.436 79.625C171.607 78.8295 171.942 78.142 172.442 77.5625C172.942 76.9773 173.587 76.5284 174.376 76.2159C175.172 75.8977 176.092 75.7386 177.138 75.7386C177.865 75.7386 178.561 75.8239 179.226 75.9943C179.896 76.1648 180.49 76.429 181.007 76.7869C181.53 77.1449 181.942 77.6051 182.243 78.1676C182.544 78.7244 182.695 79.392 182.695 80.1705V89H179.251V87.1847H179.149C178.939 87.5938 178.658 87.9545 178.305 88.267C177.953 88.5739 177.53 88.8153 177.036 88.9915C176.541 89.1619 175.97 89.2472 175.322 89.2472ZM176.362 86.7415C176.896 86.7415 177.368 86.6364 177.777 86.4261C178.186 86.2102 178.507 85.9205 178.74 85.5568C178.973 85.1932 179.089 84.7812 179.089 84.321V82.9318C178.976 83.0057 178.82 83.0739 178.621 83.1364C178.428 83.1932 178.209 83.2472 177.964 83.2983C177.72 83.3437 177.476 83.3864 177.232 83.4261C176.987 83.4602 176.766 83.4915 176.567 83.5199C176.141 83.5824 175.768 83.6818 175.45 83.8182C175.132 83.9545 174.885 84.1392 174.709 84.3722C174.533 84.5994 174.445 84.8835 174.445 85.2244C174.445 85.7188 174.624 86.0966 174.982 86.358C175.345 86.6136 175.805 86.7415 176.362 86.7415Z" fill="white"/>
<path d="M132.391 143.818H138.706V160.706C138.706 162.658 138.241 164.358 137.312 165.807C136.383 167.247 135.088 168.364 133.426 169.156C131.764 169.94 129.834 170.332 127.635 170.332C125.41 170.332 123.467 169.94 121.805 169.156C120.143 168.364 118.852 167.247 117.932 165.807C117.011 164.358 116.551 162.658 116.551 160.706V143.818H122.879V160.156C122.879 161.06 123.075 161.865 123.467 162.572C123.868 163.28 124.426 163.834 125.142 164.234C125.858 164.635 126.689 164.835 127.635 164.835C128.581 164.835 129.408 164.635 130.115 164.234C130.831 163.834 131.389 163.28 131.79 162.572C132.19 161.865 132.391 161.06 132.391 160.156V143.818ZM144.112 143.818H151.949L158.597 160.028H158.903L165.551 143.818H173.388V170H167.226V153.918H167.008L160.719 169.834H156.781L150.491 153.828H150.274V170H144.112V143.818ZM202.101 151.668C202.016 150.73 201.637 150.001 200.963 149.482C200.299 148.953 199.348 148.689 198.113 148.689C197.294 148.689 196.613 148.795 196.067 149.009C195.522 149.222 195.113 149.516 194.84 149.891C194.567 150.257 194.426 150.679 194.418 151.156C194.401 151.548 194.478 151.893 194.648 152.192C194.827 152.49 195.083 152.754 195.415 152.984C195.756 153.206 196.165 153.402 196.642 153.572C197.12 153.743 197.657 153.892 198.253 154.02L200.503 154.531C201.799 154.812 202.941 155.188 203.929 155.656C204.926 156.125 205.762 156.683 206.435 157.331C207.117 157.979 207.632 158.724 207.982 159.568C208.331 160.412 208.51 161.358 208.519 162.406C208.51 164.06 208.093 165.479 207.266 166.663C206.439 167.848 205.25 168.756 203.699 169.386C202.157 170.017 200.294 170.332 198.113 170.332C195.922 170.332 194.013 170.004 192.385 169.348C190.757 168.692 189.492 167.695 188.588 166.357C187.685 165.018 187.22 163.327 187.195 161.281H193.255C193.306 162.125 193.532 162.828 193.932 163.391C194.333 163.953 194.882 164.379 195.581 164.669C196.289 164.959 197.107 165.104 198.036 165.104C198.888 165.104 199.613 164.989 200.209 164.759C200.814 164.528 201.279 164.209 201.603 163.8C201.926 163.391 202.093 162.922 202.101 162.393C202.093 161.899 201.939 161.477 201.641 161.128C201.343 160.77 200.882 160.463 200.26 160.207C199.647 159.943 198.863 159.7 197.908 159.479L195.172 158.839C192.905 158.32 191.12 157.48 189.816 156.321C188.512 155.153 187.864 153.577 187.872 151.591C187.864 149.972 188.299 148.553 189.176 147.334C190.054 146.115 191.269 145.165 192.82 144.483C194.371 143.801 196.14 143.46 198.125 143.46C200.154 143.46 201.914 143.805 203.405 144.496C204.905 145.178 206.069 146.136 206.895 147.372C207.722 148.608 208.144 150.04 208.161 151.668H202.101ZM237.866 156.909C237.866 159.79 237.312 162.232 236.205 164.234C235.097 166.237 233.597 167.759 231.705 168.798C229.821 169.838 227.707 170.358 225.364 170.358C223.011 170.358 220.893 169.834 219.01 168.786C217.126 167.737 215.631 166.216 214.523 164.222C213.423 162.219 212.874 159.781 212.874 156.909C212.874 154.028 213.423 151.587 214.523 149.584C215.631 147.581 217.126 146.06 219.01 145.02C220.893 143.98 223.011 143.46 225.364 143.46C227.707 143.46 229.821 143.98 231.705 145.02C233.597 146.06 235.097 147.581 236.205 149.584C237.312 151.587 237.866 154.028 237.866 156.909ZM231.398 156.909C231.398 155.205 231.155 153.764 230.669 152.588C230.192 151.412 229.501 150.521 228.598 149.916C227.703 149.311 226.625 149.009 225.364 149.009C224.111 149.009 223.033 149.311 222.129 149.916C221.226 150.521 220.531 151.412 220.045 152.588C219.568 153.764 219.33 155.205 219.33 156.909C219.33 158.614 219.568 160.054 220.045 161.23C220.531 162.406 221.226 163.297 222.129 163.902C223.033 164.507 224.111 164.81 225.364 164.81C226.625 164.81 227.703 164.507 228.598 163.902C229.501 163.297 230.192 162.406 230.669 161.23C231.155 160.054 231.398 158.614 231.398 156.909ZM265.284 143.818V170H259.914L249.495 154.889H249.329V170H243.001V143.818H248.447L258.751 158.903H258.968V143.818H265.284ZM270.703 170V143.818H277.031V154.327H287.348V143.818H293.663V170H287.348V159.479H277.031V170H270.703ZM323.784 156.909C323.784 159.79 323.23 162.232 322.122 164.234C321.014 166.237 319.514 167.759 317.622 168.798C315.739 169.838 313.625 170.358 311.281 170.358C308.929 170.358 306.811 169.834 304.928 168.786C303.044 167.737 301.548 166.216 300.44 164.222C299.341 162.219 298.791 159.781 298.791 156.909C298.791 154.028 299.341 151.587 300.44 149.584C301.548 147.581 303.044 146.06 304.928 145.02C306.811 143.98 308.929 143.46 311.281 143.46C313.625 143.46 315.739 143.98 317.622 145.02C319.514 146.06 321.014 147.581 322.122 149.584C323.23 151.587 323.784 154.028 323.784 156.909ZM317.315 156.909C317.315 155.205 317.072 153.764 316.587 152.588C316.109 151.412 315.419 150.521 314.516 149.916C313.621 149.311 312.543 149.009 311.281 149.009C310.028 149.009 308.95 149.311 308.047 149.916C307.143 150.521 306.449 151.412 305.963 152.588C305.486 153.764 305.247 155.205 305.247 156.909C305.247 158.614 305.486 160.054 305.963 161.23C306.449 162.406 307.143 163.297 308.047 163.902C308.95 164.507 310.028 164.81 311.281 164.81C312.543 164.81 313.621 164.507 314.516 163.902C315.419 163.297 316.109 162.406 316.587 161.23C317.072 160.054 317.315 158.614 317.315 156.909ZM330.782 170.371C329.862 170.371 329.073 170.047 328.417 169.399C327.769 168.751 327.45 167.967 327.458 167.047C327.45 166.143 327.769 165.372 328.417 164.733C329.073 164.085 329.862 163.761 330.782 163.761C331.651 163.761 332.418 164.085 333.083 164.733C333.756 165.372 334.097 166.143 334.106 167.047C334.097 167.661 333.935 168.219 333.62 168.722C333.313 169.224 332.908 169.625 332.406 169.923C331.911 170.222 331.37 170.371 330.782 170.371Z" fill="black"/>
<path d="M201.724 130.349V122.909H205.883V136H201.912V133.562H201.776C201.486 134.364 200.991 135 200.293 135.472C199.599 135.937 198.761 136.17 197.778 136.17C196.886 136.17 196.102 135.966 195.426 135.557C194.75 135.148 194.224 134.577 193.849 133.844C193.474 133.105 193.284 132.241 193.278 131.253V122.909H197.446V130.435C197.452 131.145 197.639 131.705 198.008 132.114C198.378 132.523 198.881 132.727 199.517 132.727C199.932 132.727 200.304 132.636 200.633 132.455C200.969 132.267 201.233 131.997 201.426 131.645C201.625 131.287 201.724 130.855 201.724 130.349ZM209.496 136V122.909H213.459V125.312H213.604C213.877 124.517 214.337 123.889 214.985 123.429C215.633 122.969 216.405 122.739 217.303 122.739C218.212 122.739 218.991 122.972 219.638 123.438C220.286 123.903 220.698 124.528 220.874 125.312H221.01C221.255 124.534 221.732 123.912 222.442 123.446C223.152 122.974 223.991 122.739 224.956 122.739C226.195 122.739 227.201 123.136 227.973 123.932C228.746 124.722 229.133 125.807 229.133 127.188V136H224.965V128.142C224.965 127.489 224.797 126.991 224.462 126.651C224.127 126.304 223.692 126.131 223.158 126.131C222.584 126.131 222.133 126.318 221.803 126.693C221.479 127.062 221.317 127.56 221.317 128.185V136H217.312V128.099C217.312 127.491 217.147 127.011 216.817 126.659C216.488 126.307 216.053 126.131 215.513 126.131C215.15 126.131 214.829 126.219 214.55 126.395C214.272 126.565 214.053 126.81 213.894 127.128C213.741 127.446 213.664 127.821 213.664 128.253V136H209.496ZM236.365 136.222C235.53 136.222 234.789 136.082 234.141 135.804C233.499 135.52 232.99 135.094 232.615 134.526C232.246 133.952 232.061 133.233 232.061 132.369C232.061 131.642 232.189 131.028 232.445 130.528C232.701 130.028 233.053 129.622 233.502 129.31C233.951 128.997 234.468 128.761 235.053 128.602C235.638 128.437 236.263 128.327 236.928 128.27C237.672 128.202 238.272 128.131 238.726 128.057C239.181 127.977 239.51 127.866 239.715 127.724C239.925 127.577 240.03 127.369 240.03 127.102V127.06C240.03 126.622 239.879 126.284 239.578 126.045C239.277 125.807 238.871 125.688 238.36 125.688C237.808 125.688 237.365 125.807 237.03 126.045C236.695 126.284 236.482 126.614 236.391 127.034L232.547 126.898C232.661 126.102 232.953 125.392 233.425 124.767C233.902 124.136 234.556 123.642 235.385 123.284C236.22 122.92 237.223 122.739 238.394 122.739C239.229 122.739 239.999 122.838 240.703 123.037C241.408 123.23 242.022 123.514 242.544 123.889C243.067 124.259 243.47 124.713 243.754 125.253C244.044 125.793 244.189 126.409 244.189 127.102V136H240.269V134.176H240.166C239.933 134.619 239.635 134.994 239.272 135.301C238.914 135.608 238.49 135.838 238.002 135.991C237.519 136.145 236.973 136.222 236.365 136.222ZM237.652 133.494C238.101 133.494 238.504 133.403 238.862 133.222C239.226 133.04 239.516 132.79 239.732 132.472C239.948 132.148 240.056 131.773 240.056 131.347V130.102C239.936 130.165 239.791 130.222 239.621 130.273C239.456 130.324 239.274 130.372 239.076 130.418C238.877 130.463 238.672 130.503 238.462 130.537C238.252 130.571 238.05 130.602 237.857 130.631C237.465 130.693 237.129 130.79 236.851 130.92C236.578 131.051 236.368 131.222 236.22 131.432C236.078 131.636 236.007 131.881 236.007 132.165C236.007 132.597 236.161 132.926 236.468 133.153C236.78 133.381 237.175 133.494 237.652 133.494ZM259.924 136.247C258.544 136.247 257.359 135.963 256.371 135.395C255.388 134.827 254.632 134.037 254.103 133.026C253.575 132.009 253.311 130.832 253.311 129.497C253.311 128.156 253.575 126.98 254.103 125.969C254.638 124.952 255.396 124.159 256.379 123.591C257.368 123.023 258.547 122.739 259.916 122.739C261.126 122.739 262.18 122.957 263.078 123.395C263.981 123.832 264.686 124.452 265.192 125.253C265.703 126.048 265.973 126.983 266.001 128.057H262.106C262.027 127.386 261.799 126.861 261.424 126.48C261.055 126.099 260.572 125.909 259.976 125.909C259.493 125.909 259.069 126.045 258.706 126.318C258.342 126.585 258.058 126.983 257.853 127.511C257.655 128.034 257.555 128.682 257.555 129.455C257.555 130.227 257.655 130.881 257.853 131.415C258.058 131.943 258.342 132.344 258.706 132.616C259.069 132.884 259.493 133.017 259.976 133.017C260.362 133.017 260.703 132.935 260.998 132.77C261.299 132.605 261.547 132.364 261.74 132.045C261.933 131.722 262.055 131.33 262.106 130.869H266.001C265.961 131.949 265.692 132.892 265.192 133.699C264.697 134.506 264.001 135.134 263.103 135.582C262.211 136.026 261.152 136.247 259.924 136.247ZM272.784 136.222C271.949 136.222 271.208 136.082 270.56 135.804C269.918 135.52 269.409 135.094 269.034 134.526C268.665 133.952 268.48 133.233 268.48 132.369C268.48 131.642 268.608 131.028 268.864 130.528C269.12 130.028 269.472 129.622 269.921 129.31C270.37 128.997 270.887 128.761 271.472 128.602C272.057 128.437 272.682 128.327 273.347 128.27C274.091 128.202 274.691 128.131 275.145 128.057C275.6 127.977 275.929 127.866 276.134 127.724C276.344 127.577 276.449 127.369 276.449 127.102V127.06C276.449 126.622 276.299 126.284 275.997 126.045C275.696 125.807 275.29 125.688 274.779 125.688C274.228 125.688 273.784 125.807 273.449 126.045C273.114 126.284 272.901 126.614 272.81 127.034L268.966 126.898C269.08 126.102 269.372 125.392 269.844 124.767C270.321 124.136 270.975 123.642 271.804 123.284C272.639 122.92 273.642 122.739 274.813 122.739C275.648 122.739 276.418 122.838 277.122 123.037C277.827 123.23 278.441 123.514 278.963 123.889C279.486 124.259 279.889 124.713 280.174 125.253C280.463 125.793 280.608 126.409 280.608 127.102V136H276.688V134.176H276.585C276.353 134.619 276.054 134.994 275.691 135.301C275.333 135.608 274.909 135.838 274.421 135.991C273.938 136.145 273.392 136.222 272.784 136.222ZM274.071 133.494C274.52 133.494 274.924 133.403 275.282 133.222C275.645 133.04 275.935 132.79 276.151 132.472C276.367 132.148 276.475 131.773 276.475 131.347V130.102C276.355 130.165 276.21 130.222 276.04 130.273C275.875 130.324 275.693 130.372 275.495 130.418C275.296 130.463 275.091 130.503 274.881 130.537C274.671 130.571 274.469 130.602 274.276 130.631C273.884 130.693 273.549 130.79 273.27 130.92C272.997 131.051 272.787 131.222 272.639 131.432C272.497 131.636 272.426 131.881 272.426 132.165C272.426 132.597 272.58 132.926 272.887 133.153C273.199 133.381 273.594 133.494 274.071 133.494ZM292.563 130.349V122.909H296.722V136H292.75V133.562H292.614C292.324 134.364 291.83 135 291.131 135.472C290.438 135.937 289.599 136.17 288.616 136.17C287.724 136.17 286.94 135.966 286.264 135.557C285.588 135.148 285.063 134.577 284.688 133.844C284.313 133.105 284.122 132.241 284.116 131.253V122.909H288.284V130.435C288.29 131.145 288.477 131.705 288.847 132.114C289.216 132.523 289.719 132.727 290.355 132.727C290.77 132.727 291.142 132.636 291.472 132.455C291.807 132.267 292.071 131.997 292.264 131.645C292.463 131.287 292.563 130.855 292.563 130.349ZM311.763 126.906L307.937 127.009C307.897 126.736 307.789 126.494 307.613 126.284C307.437 126.068 307.206 125.901 306.922 125.781C306.644 125.656 306.32 125.594 305.951 125.594C305.468 125.594 305.056 125.69 304.715 125.884C304.38 126.077 304.215 126.338 304.221 126.668C304.215 126.923 304.317 127.145 304.527 127.332C304.743 127.52 305.127 127.67 305.678 127.784L308.201 128.261C309.508 128.511 310.479 128.926 311.116 129.506C311.758 130.085 312.081 130.852 312.087 131.807C312.081 132.705 311.814 133.486 311.286 134.151C310.763 134.815 310.047 135.332 309.138 135.702C308.229 136.065 307.189 136.247 306.019 136.247C304.15 136.247 302.675 135.864 301.596 135.097C300.522 134.324 299.908 133.29 299.755 131.994L303.871 131.892C303.962 132.369 304.198 132.733 304.579 132.983C304.959 133.233 305.445 133.358 306.036 133.358C306.57 133.358 307.005 133.259 307.34 133.06C307.675 132.861 307.846 132.597 307.851 132.267C307.846 131.972 307.715 131.736 307.459 131.56C307.204 131.378 306.803 131.236 306.258 131.134L303.974 130.699C302.661 130.46 301.684 130.02 301.042 129.378C300.4 128.73 300.081 127.906 300.087 126.906C300.081 126.031 300.314 125.284 300.786 124.665C301.258 124.04 301.928 123.562 302.797 123.233C303.667 122.903 304.692 122.739 305.874 122.739C307.647 122.739 309.045 123.111 310.067 123.855C311.09 124.594 311.655 125.611 311.763 126.906ZM318.789 136.222C317.954 136.222 317.213 136.082 316.565 135.804C315.923 135.52 315.414 135.094 315.039 134.526C314.67 133.952 314.485 133.233 314.485 132.369C314.485 131.642 314.613 131.028 314.869 130.528C315.125 130.028 315.477 129.622 315.926 129.31C316.375 128.997 316.892 128.761 317.477 128.602C318.062 128.437 318.687 128.327 319.352 128.27C320.096 128.202 320.696 128.131 321.15 128.057C321.605 127.977 321.934 127.866 322.139 127.724C322.349 127.577 322.454 127.369 322.454 127.102V127.06C322.454 126.622 322.304 126.284 322.002 126.045C321.701 125.807 321.295 125.688 320.784 125.688C320.233 125.688 319.789 125.807 319.454 126.045C319.119 126.284 318.906 126.614 318.815 127.034L314.971 126.898C315.085 126.102 315.377 125.392 315.849 124.767C316.326 124.136 316.98 123.642 317.809 123.284C318.644 122.92 319.647 122.739 320.818 122.739C321.653 122.739 322.423 122.838 323.127 123.037C323.832 123.23 324.446 123.514 324.968 123.889C325.491 124.259 325.894 124.713 326.179 125.253C326.468 125.793 326.613 126.409 326.613 127.102V136H322.693V134.176H322.59C322.358 134.619 322.059 134.994 321.696 135.301C321.338 135.608 320.914 135.838 320.426 135.991C319.943 136.145 319.397 136.222 318.789 136.222ZM320.076 133.494C320.525 133.494 320.929 133.403 321.287 133.222C321.65 133.04 321.94 132.79 322.156 132.472C322.372 132.148 322.48 131.773 322.48 131.347V130.102C322.36 130.165 322.215 130.222 322.045 130.273C321.88 130.324 321.698 130.372 321.5 130.418C321.301 130.463 321.096 130.503 320.886 130.537C320.676 130.571 320.474 130.602 320.281 130.631C319.889 130.693 319.554 130.79 319.275 130.92C319.002 131.051 318.792 131.222 318.644 131.432C318.502 131.636 318.431 131.881 318.431 132.165C318.431 132.597 318.585 132.926 318.892 133.153C319.204 133.381 319.599 133.494 320.076 133.494ZM334.374 133.614L334.298 134.56C334.229 135.344 334.09 136.108 333.88 136.852C333.675 137.602 333.457 138.276 333.224 138.872C332.991 139.469 332.806 139.932 332.67 140.261H330.045C330.136 139.932 330.258 139.469 330.411 138.872C330.57 138.276 330.718 137.602 330.854 136.852C330.991 136.102 331.068 135.341 331.085 134.568L331.102 133.614H334.374Z" fill="black"/>
<path d="M239.725 101.091H242.356V108.127C242.356 108.941 242.163 109.649 241.776 110.253C241.389 110.853 240.849 111.318 240.156 111.648C239.464 111.975 238.66 112.138 237.743 112.138C236.817 112.138 236.007 111.975 235.314 111.648C234.622 111.318 234.084 110.853 233.7 110.253C233.317 109.649 233.125 108.941 233.125 108.127V101.091H235.762V107.898C235.762 108.275 235.844 108.61 236.007 108.905C236.174 109.2 236.406 109.431 236.705 109.598C237.003 109.765 237.349 109.848 237.743 109.848C238.138 109.848 238.482 109.765 238.777 109.598C239.075 109.431 239.308 109.2 239.475 108.905C239.641 108.61 239.725 108.275 239.725 107.898V101.091ZM244.609 112V103.818H247.086V105.32H247.176C247.347 104.823 247.635 104.431 248.039 104.143C248.444 103.855 248.927 103.712 249.488 103.712C250.056 103.712 250.543 103.857 250.948 104.148C251.353 104.44 251.61 104.83 251.72 105.32H251.805C251.958 104.834 252.256 104.445 252.7 104.154C253.144 103.859 253.668 103.712 254.272 103.712C255.046 103.712 255.674 103.96 256.157 104.457C256.64 104.951 256.882 105.629 256.882 106.492V112H254.277V107.089C254.277 106.68 254.172 106.37 253.963 106.157C253.753 105.94 253.481 105.832 253.148 105.832C252.789 105.832 252.507 105.949 252.301 106.183C252.098 106.414 251.997 106.725 251.997 107.115V112H249.494V107.062C249.494 106.682 249.391 106.382 249.185 106.162C248.979 105.942 248.707 105.832 248.37 105.832C248.142 105.832 247.942 105.887 247.768 105.997C247.594 106.103 247.457 106.256 247.358 106.455C247.262 106.654 247.214 106.888 247.214 107.158V112H244.609ZM261.402 112.138C260.88 112.138 260.417 112.051 260.012 111.877C259.611 111.7 259.293 111.434 259.058 111.078C258.828 110.72 258.712 110.271 258.712 109.731C258.712 109.276 258.792 108.893 258.952 108.58C259.112 108.268 259.332 108.014 259.612 107.819C259.893 107.623 260.216 107.476 260.582 107.376C260.948 107.273 261.338 107.204 261.754 107.169C262.219 107.126 262.594 107.082 262.878 107.036C263.162 106.986 263.368 106.917 263.496 106.828C263.627 106.735 263.693 106.606 263.693 106.439V106.412C263.693 106.139 263.598 105.928 263.41 105.778C263.222 105.629 262.968 105.555 262.649 105.555C262.304 105.555 262.027 105.629 261.818 105.778C261.608 105.928 261.475 106.134 261.418 106.396L259.016 106.311C259.087 105.814 259.27 105.37 259.564 104.979C259.863 104.585 260.271 104.276 260.79 104.053C261.312 103.825 261.938 103.712 262.67 103.712C263.192 103.712 263.673 103.774 264.113 103.898C264.554 104.019 264.937 104.196 265.264 104.431C265.591 104.662 265.843 104.946 266.02 105.283C266.201 105.62 266.292 106.006 266.292 106.439V112H263.842V110.86H263.778C263.632 111.137 263.446 111.371 263.219 111.563C262.995 111.755 262.73 111.899 262.425 111.995C262.123 112.091 261.782 112.138 261.402 112.138ZM262.206 110.434C262.487 110.434 262.739 110.377 262.963 110.263C263.19 110.15 263.371 109.994 263.506 109.795C263.641 109.592 263.709 109.358 263.709 109.092V108.314C263.634 108.353 263.543 108.388 263.437 108.42C263.334 108.452 263.22 108.483 263.096 108.511C262.972 108.539 262.844 108.564 262.712 108.586C262.581 108.607 262.455 108.626 262.334 108.644C262.089 108.683 261.88 108.744 261.706 108.825C261.535 108.907 261.404 109.013 261.312 109.145C261.223 109.273 261.178 109.425 261.178 109.603C261.178 109.873 261.274 110.079 261.466 110.221C261.661 110.363 261.908 110.434 262.206 110.434ZM276.127 112.154C275.264 112.154 274.523 111.977 273.905 111.622C273.291 111.267 272.819 110.773 272.488 110.141C272.158 109.505 271.993 108.77 271.993 107.936C271.993 107.098 272.158 106.363 272.488 105.73C272.822 105.095 273.296 104.599 273.911 104.244C274.529 103.889 275.265 103.712 276.121 103.712C276.878 103.712 277.536 103.848 278.098 104.122C278.662 104.395 279.102 104.782 279.419 105.283C279.738 105.78 279.907 106.364 279.925 107.036H277.49C277.441 106.616 277.298 106.288 277.064 106.05C276.833 105.812 276.531 105.693 276.159 105.693C275.857 105.693 275.592 105.778 275.365 105.949C275.138 106.116 274.96 106.364 274.832 106.695C274.708 107.021 274.646 107.426 274.646 107.909C274.646 108.392 274.708 108.8 274.832 109.134C274.96 109.464 275.138 109.715 275.365 109.885C275.592 110.052 275.857 110.136 276.159 110.136C276.4 110.136 276.613 110.084 276.798 109.981C276.986 109.878 277.14 109.727 277.261 109.528C277.382 109.326 277.458 109.081 277.49 108.793H279.925C279.9 109.468 279.731 110.058 279.419 110.562C279.11 111.066 278.675 111.458 278.113 111.739C277.556 112.016 276.894 112.154 276.127 112.154ZM285.677 112.154C284.817 112.154 284.079 111.979 283.461 111.627C282.847 111.272 282.372 110.778 282.039 110.146C281.708 109.511 281.543 108.774 281.543 107.936C281.543 107.094 281.708 106.357 282.039 105.725C282.372 105.089 282.847 104.596 283.461 104.244C284.079 103.889 284.817 103.712 285.677 103.712C286.536 103.712 287.273 103.889 287.887 104.244C288.505 104.596 288.979 105.089 289.31 105.725C289.643 106.357 289.81 107.094 289.81 107.936C289.81 108.774 289.643 109.511 289.31 110.146C288.979 110.778 288.505 111.272 287.887 111.627C287.273 111.979 286.536 112.154 285.677 112.154ZM285.693 110.189C286.005 110.189 286.27 110.093 286.486 109.901C286.703 109.71 286.868 109.443 286.982 109.102C287.099 108.761 287.158 108.367 287.158 107.92C287.158 107.465 287.099 107.067 286.982 106.727C286.868 106.386 286.703 106.119 286.486 105.928C286.27 105.736 286.005 105.64 285.693 105.64C285.37 105.64 285.096 105.736 284.872 105.928C284.652 106.119 284.484 106.386 284.366 106.727C284.253 107.067 284.196 107.465 284.196 107.92C284.196 108.367 284.253 108.761 284.366 109.102C284.484 109.443 284.652 109.71 284.872 109.901C285.096 110.093 285.37 110.189 285.693 110.189ZM291.745 112V103.818H294.222V105.32H294.312C294.483 104.823 294.77 104.431 295.175 104.143C295.58 103.855 296.063 103.712 296.624 103.712C297.192 103.712 297.679 103.857 298.083 104.148C298.488 104.44 298.746 104.83 298.856 105.32H298.941C299.094 104.834 299.392 104.445 299.836 104.154C300.28 103.859 300.804 103.712 301.407 103.712C302.181 103.712 302.81 103.96 303.293 104.457C303.776 104.951 304.017 105.629 304.017 106.492V112H301.413V107.089C301.413 106.68 301.308 106.37 301.098 106.157C300.889 105.94 300.617 105.832 300.283 105.832C299.925 105.832 299.642 105.949 299.436 106.183C299.234 106.414 299.133 106.725 299.133 107.115V112H296.629V107.062C296.629 106.682 296.526 106.382 296.32 106.162C296.114 105.942 295.843 105.832 295.505 105.832C295.278 105.832 295.077 105.887 294.903 105.997C294.729 106.103 294.593 106.256 294.493 106.455C294.397 106.654 294.349 106.888 294.349 107.158V112H291.745ZM306.231 115.068V103.818H308.81V105.219H308.889C308.996 104.971 309.147 104.731 309.342 104.5C309.541 104.269 309.793 104.081 310.099 103.935C310.408 103.786 310.777 103.712 311.207 103.712C311.775 103.712 312.306 103.861 312.799 104.159C313.296 104.457 313.698 104.917 314.003 105.539C314.308 106.16 314.461 106.952 314.461 107.914C314.461 108.841 314.314 109.617 314.019 110.242C313.728 110.867 313.334 111.336 312.837 111.648C312.343 111.961 311.794 112.117 311.191 112.117C310.779 112.117 310.422 112.05 310.12 111.915C309.818 111.78 309.564 111.602 309.358 111.382C309.156 111.162 309 110.926 308.889 110.674H308.836V115.068H306.231ZM308.783 107.909C308.783 108.349 308.841 108.733 308.959 109.06C309.079 109.386 309.252 109.64 309.475 109.821C309.703 109.999 309.974 110.088 310.29 110.088C310.61 110.088 310.882 109.999 311.105 109.821C311.329 109.64 311.498 109.386 311.611 109.06C311.729 108.733 311.787 108.349 311.787 107.909C311.787 107.469 311.729 107.087 311.611 106.764C311.498 106.441 311.329 106.19 311.105 106.013C310.885 105.835 310.613 105.746 310.29 105.746C309.971 105.746 309.699 105.833 309.475 106.007C309.252 106.181 309.079 106.43 308.959 106.753C308.841 107.076 308.783 107.462 308.783 107.909ZM316.426 112V103.818H318.956V105.31H319.042C319.191 104.77 319.434 104.369 319.771 104.106C320.109 103.839 320.501 103.706 320.948 103.706C321.069 103.706 321.194 103.715 321.321 103.733C321.449 103.747 321.568 103.77 321.678 103.802V106.066C321.554 106.023 321.391 105.99 321.188 105.965C320.989 105.94 320.812 105.928 320.656 105.928C320.347 105.928 320.068 105.997 319.819 106.135C319.574 106.27 319.381 106.46 319.239 106.705C319.1 106.947 319.031 107.231 319.031 107.558V112H316.426ZM325.338 112.138C324.816 112.138 324.353 112.051 323.948 111.877C323.547 111.7 323.229 111.434 322.995 111.078C322.764 110.72 322.648 110.271 322.648 109.731C322.648 109.276 322.728 108.893 322.888 108.58C323.048 108.268 323.268 108.014 323.549 107.819C323.829 107.623 324.152 107.476 324.518 107.376C324.884 107.273 325.275 107.204 325.69 107.169C326.155 107.126 326.53 107.082 326.814 107.036C327.098 106.986 327.304 106.917 327.432 106.828C327.563 106.735 327.629 106.606 327.629 106.439V106.412C327.629 106.139 327.535 105.928 327.347 105.778C327.158 105.629 326.904 105.555 326.585 105.555C326.24 105.555 325.963 105.629 325.754 105.778C325.544 105.928 325.411 106.134 325.354 106.396L322.952 106.311C323.023 105.814 323.206 105.37 323.501 104.979C323.799 104.585 324.207 104.276 324.726 104.053C325.248 103.825 325.875 103.712 326.606 103.712C327.128 103.712 327.609 103.774 328.05 103.898C328.49 104.019 328.874 104.196 329.2 104.431C329.527 104.662 329.779 104.946 329.957 105.283C330.138 105.62 330.228 106.006 330.228 106.439V112H327.778V110.86H327.714C327.569 111.137 327.382 111.371 327.155 111.563C326.931 111.755 326.667 111.899 326.361 111.995C326.059 112.091 325.718 112.138 325.338 112.138ZM326.143 110.434C326.423 110.434 326.675 110.377 326.899 110.263C327.126 110.15 327.308 109.994 327.442 109.795C327.577 109.592 327.645 109.358 327.645 109.092V108.314C327.57 108.353 327.48 108.388 327.373 108.42C327.27 108.452 327.157 108.483 327.032 108.511C326.908 108.539 326.78 108.564 326.649 108.586C326.517 108.607 326.391 108.626 326.271 108.644C326.026 108.683 325.816 108.744 325.642 108.825C325.472 108.907 325.34 109.013 325.248 109.145C325.159 109.273 325.115 109.425 325.115 109.603C325.115 109.873 325.211 110.079 325.402 110.221C325.598 110.363 325.844 110.434 326.143 110.434ZM335.079 110.509L335.031 111.1C334.989 111.59 334.902 112.067 334.77 112.533C334.642 113.001 334.506 113.422 334.36 113.795C334.214 114.168 334.099 114.457 334.014 114.663H332.373C332.43 114.457 332.506 114.168 332.602 113.795C332.702 113.422 332.794 113.001 332.879 112.533C332.964 112.064 333.012 111.588 333.023 111.105L333.034 110.509H335.079Z" fill="black"/>
</svg>
